<svg xmlns="http://www.w3.org/2000/svg" xmlns:xlink="http://www.w3.org/1999/xlink" version="1" width="1400" height="1400" viewBox="0 0 14000 14000" id="marv">
	<g id="tail">
		<path d="M11836.425 3269.972c-24.061.207-52.758 13.441-81.446 39.316-26 23-60 42-90 50-68 17-208 85.989-300 147.989-276 186-477.992 468.008-476.992 668.008 1 118 100.004 294.003 209.004 369.003 14 9 23 18 20 20-2 2-101.004 50.985-219.004 108.985-182 89-329 168.012-555 297.012-22 13-51.992 31.992-66.992 41.992-14 11-28.016 19.004-31.016 19.004s-33.988 18.004-67.988 39.004c-35 22-95.004 58.992-134.004 81.992-7.375 4.475-14.9 9.142-22.344 13.71v13.126h-21.367c-490.211 304.01-1118.871 799.895-1505.293 1191.171l-112.813 113.75c.148 2.772.311 5.54.488 8.301-325.401 155.547-222.975 359.736-218.424 472.663 3.431 11.076 282.444-179.133 287.428-169.89 16-36.642 48.553-86.906 92.324-139.824 77.316-93.928 167.261-193.67 263.653-293.496v-6.894h6.719c203.726-210.336 435.66-420.448 639.629-576.621 33-25 98-74.996 145-110.996 73-57 163-123.996 270-200.996 382-275 855.996-568.993 1175.996-726.993 181-90 167.004-88 214.004-35 54 60 146.996 117.989 255.996 157.989 85 30 96.004 32.011 229.004 32.011 128-1 147.996-3.015 230.996-31.015 222-73 366-185.996 505-395.996 65-99 106.004-210.004 134.004-364.004 16-88 16-93.992 0-111.992-24-27-49.996-33-75.996-20-26 15-25 12 50-90 102-139 116.992-149.008 276.992-198.008 77-23 149.996-41.992 160.996-41.992 34 0 73.008-37.993 73.008-71.993 0-88-153-171.007-375-203.007-310-45-689.004 26.992-989.004 186.992-17 9-15.992 7.015 3.008-28.985 30-51 47.004-70.015 109.004-121.015 56-47 63.996-71 35.996-110-10.938-15.75-26.853-23.462-45.566-23.301zm668.32 195.566c96-.75 189.242 5.747 248.242 19.747 97 22 159.008 45.996 148.008 55.996-4 5-74.004 29.004-154.004 54.004-81 25-152.008 52-158.008 60-7 8-16 26.988-20 42.988-5 16-57.988 97.004-117.988 179.004-168 231-270.004 377.011-284.004 407.011-7 15-20.004 26.993-29.004 26.993s-25 9-35 20c-24 26-11 68.992 25 86.992 34 17 145.996 16.008 205.996-1.992 27-8 50.012-15 52.012-15 13 0-95.008 133.007-148.008 183.007-83 78-154.992 121-266.992 160-75 26-105.008 30.985-208.008 33.985-105 3-129 0-190-20-135-45-230.996-111.988-220.996-152.988 10-40-10-61-105-110-101-52-160.004-106-204.004-185-27-49-30-62.004-30-144.004 1-76 4.992-98.993 26.992-146.993 61-130 170.004-261.015 304.004-361.015 81-61 229.008-146.992 253.008-146.992 12 0-67.012 163.996-102.012 210.996-18 26-18.988 33.004-7.988 69.004 15 52 49 69.992 85 46.992 13-9 26.996-29.996 30.996-45.996 8-37 97-96.996 260-175.996 123-60 225.992-93.993 376.992-126.993 70-15 168.766-23 264.766-23.75zm-14.024 551.153c3.512-1.242 5.196 22.832 4.258 56.582-2 61-4.988 70.004-42.988 114.004-22 26-62.008 62.996-88.008 80.996-50 34-73 42.015-60 21.015 42-69 157.996-240.011 185.996-272.011.25-.312.51-.503.74-.586zm-2208.613 1066.933c2.758 1.097-197.159 141.767-624.121 438.653-192 143-408 315.008-605 483.008-77 65-239.992 219-361.992 340-229 229-265 257-120 95 263-295 717.992-680.004 1186.992-1004.004 340.086-231.547 521.53-353.687 524.121-352.657z" fill="#051521" stroke="#051521" stroke-width="10"/><path d="M11381.987 3897.28c-15-38 55-201 141-330l19-29-21 12c-15 7-24 8-28 1-7-12 121-74 134-66 9 6-90 209-115 237-10 11-15 31-12 56 2 25-1 37-9 36-6-2-32 21-57 49-38 44-46 49-52 34zm519 552c-10-18-4-86 13-148 88-310 452-654 796-753 64-18 122-38 130-44 10-9 23-7 52 10 22 12 39 26 40 31 1 4-71 31-159 58-88 28-166 55-172 60-7 6-13 19-13 30s-58 99-128 196c-218 301-273 381-281 408-5 20-14 28-36 30-49 5-60 44-20 70 34 22 21 38-15 18-27-17-31-16-114 14-61 22-87 28-93 20zm-297 336c-78-19-170-65-228-114-42-37-46-44-41-74 5-32 3-36-36-56-23-11-39-25-36-31 4-6 13-6 23 0 12 7 19 4 27-12 16-34 43-27 68 18 26 46 74 76 172 107 103 33 299 33 405 0 96-31 193-80 259-132 49-39 51-43 34-55-17-13-17-14-1-20 9-4 22-4 27-1 6 4 18 3 28-2 50-26 95-42 104-36 16 9-90 151-169 225-169 158-430 233-636 183z" fill="#716d69"/><path d="M8448.463 6569.487c-9-14 215.524-251.206 392.524-416.206 314-292 616-531 977-773 206-139 502.937-334.397 509.937-323.397 4 5-313.937 223.397-366.937 260.397-477 329-1065 817-1333 1106-86 92-166.524 167.206-179.524 146.206z" fill="#d91c14"/><path d="M11620.987 4661.28c-115-21-211-70-251-130-28-42-42-49-42-21 0 34-17 34-87-1-89-43-184-136-220-214-34-72-37-161-9-243 57-168 296-414 504-520 23-12 47-19 51-16 5 3-11 35-36 72s-56 90-70 117c-27 53-65 157-60 162 2 2 21-14 42-36l39-40 27 26c35 34 61 26 81-25 18-45 63-81 186-148 271-148 593-220 855-193 111 12 240 46 239 64-1 5-55 24-120 42-128 35-151 44-252 101-254 141-451 353-543 585-31 76-50 188-33 188 6 0 44-12 84-27 74-26 74-26 105-7 23 14 53 19 110 20 43 1 80 4 83 7 11 11-124 119-195 155-118 62-199 83-326 87-60 2-133 0-162-5z" fill="#ede7e2"/>
	</g>
	<g>
		<g fill="#193a4c"><path d="M7652.79 11420.38c-278-108-551-221-581-241l-22-14 19-88c35-173 111-491 159-673 87-326 97-355 111-351 196 58 339 97 594 161 222 57 309 83 306 92-1 7-25 85-51 173-68 225-148 510-220 785-34 129-65 238-68 242-4 4-115-35-247-86z"/><path d="M1879.79 7757.38c-386-385-566-596-721-843-63-101-72-118-61-125 5-3 16 8 25 25 12 22 67 65 188 144 372 244 730 477 900 585 136 87 177 118 172 130-4 9-35 97-71 196-70 196-75 207-92 213-6 2-159-144-340-325zm151 59c-2-9-9-69-16-132-12-112-13-115-37-115-20 0-27 8-40 42-8 23-19 45-22 49-14 13-30-51-25-97 6-51-3-75-27-66-19 8-21 72-5 162 6 33 11 65 11 70 1 6 14 12 29 13 23 2 32-4 44-28 9-17 19-28 24-26 4 3 11 38 14 77 6 72 20 97 43 78 7-5 10-17 7-27zm-249-265c0-9-1-46-2-82-2-58-4-65-22-65s-20 7-20 78c0 43 3 82 7 86 13 12 38 1 37-17z"/></g>
		<g fill="#716d69"><path d="M6460.79 8368.38c-80-88-91-108-73-129 27-33 62-18 132 58 69 73 83 108 56 135-24 24-48 11-115-64z"/><path d="M6620.79 8321.38c-19-24-23-36-14-41 5-3 16 5 25 19 16 24 6 45-11 22z"/><path d="M6682.79 8160.38c-17-13-41-26-53-28-32-4-28-22 5-26 15-2 32-11 39-19 13-19 26-13 53 26 20 28 20 30 3 50l-17 21-30-24z"/><path d="M6127.79 8087.38c-91-30-247-76-348-104-100-27-193-55-205-63s-60-17-107-20c-204-16-345-51-386-97-26-28-34-95-17-130 17-33 33-30 33 7 0 28-5 27 135 25 190-4 420 61 690 194 123 60 342 191 378 225 24 22-23 12-173-37z"/><path d="M5384.79 7638.38c-4-4-22-8-42-10-19-2-40-6-46-9-29-19 36-155 189-390 52-81 62-102 53-117-14-23 3-32 21-10 37 42 37 53 3 101-56 80-165 291-165 320 0 34 21 56 37 40 13-13 36-2 27 12-3 6-12 8-20 5-12-5-38 26-39 46 0 11-11 18-18 12z"/><path d="M5101.79 7620.38c-6-15 18-161 46-281 18-75 18-78 1-56-10 13-21 19-24 14-8-13 22-55 34-47 5 3 8 0 7-6-4-18 27-20 50-4 19 13 19 14 1 81-11 37-26 104-33 148-17 96-10 120 35 111 36-7 46 7 16 26-32 21-126 31-133 14z"/><path d="M4662.79 6304.38c-6-11 83-144 130-194 66-69 152-136 175-136 31 0 31 16 1 38-38 28-117 147-152 230l-28 67h-61c-34 0-63-2-65-5z"/><path d="M4312.79 6283.38c-8-12 20-23 44-16 15 4 27-13 64-87 56-112 105-186 122-186 7 0 18 6 24 14 10 11 7 24-10 58-12 24-36 84-54 133l-31 90-77 2c-42 1-79-2-82-8z"/><path d="M4130.79 6231.38c-61-68-82-126-58-164 23-34 114-74 184-80 64-6 84 6 57 35-26 29-65 125-79 193-17 86-37 89-104 16z"/><path d="M3812.79 6250.38c-28-42-55-124-55-166 0-41 34-91 49-73 7 7 41 189 45 237 2 29-21 30-39 2z"/><path d="M3949.79 6262.38c-39-47-64-325-32-363 22-26 193-16 223 14 7 7-5 17-39 31-123 53-153 144-89 270 13 26 21 50 18 54-11 11-70 6-81-6z"/><path d="M6653.79 6016.38c-3-5 1-30 9-57 19-61 19-84 0-105-13-15-11-20 19-49l34-33 17 33c10 19 26 41 37 50 20 15 19 17-36 76-31 33-56 65-56 71 0 15-17 24-24 14z"/><path d="M8977.79 3747.38c-188-13-191-13-201-41-7-19-7-32 0-42 6-8 16-26 22-40l10-24 22 28c25 30 53 32 70 5 10-15-16-133-44-206-13-34-66-32-79 2-8 20-13 23-32 16-29-10-36-46-11-59 108-58 585-205 898-277 61-14 136-32 168-39 47-11 59-12 63-1 8 21-175 305-197 305-5 0-8 5-6 11 1 6-5 13-14 14-9 2-42 23-75 48-110 83-248 168-389 238-77 38-144 68-150 67-5-1-30-3-55-5z"/></g>
		<g fill="#ffcc63"><path d="M6833.79 6344.38c-57-22-129-88-158-144-22-44-34-128-24-178 4-21 29-56 67-97l59-64 76 82c42 45 90 89 106 97 58 30 89-7 69-82-16-63-24-151-14-157 16-10 121 123 160 201 41 83 54 170 33 222-19 46-95 108-153 125-69 20-161 18-221-5z"/><path d="M6957.79 5113.38c-164-22-271-43-339-65-41-14-80-23-86-20-7 2-21-1-31-8-11-6-37-18-59-25s-101-37-175-66-166-65-205-79c-38-15-173-73-300-129l-230-103 3-34c1-21-10-63-32-114-19-45-45-119-57-166-42-157-29-391 27-477l14-22 62 29c79 36 195 60 290 60 257-1 478-169 478-363 0-118-71-288-159-377-46-47-207-150-235-150-26 0-28-18-4-34 81-53 292-60 423-13 39 13 89 34 112 46 49 25 143 105 158 135 14 26 44 26 146-2 161-43 360-55 478-27 94 23 183 69 249 130 65 60 117 129 108 143-3 6-32 4-73-5-81-18-237-12-328 12-114 30-202 79-279 158-53 53-75 84-85 116-20 71-25 148-11 194 76 258 125 330 274 402 110 54 237 84 391 93l110 7 3 43c11 148-121 378-311 543-86 75-236 180-252 178-5-1-39-5-75-10zm280-519c58-30 82-62 65-89-10-18-61-12-100 10-41 24-52 23-155-21-88-37-426-151-622-209-154-46-177-48-417-29-145 11-154 11-167-6-7-10-11-30-8-46 4-17 0-32-11-43-22-22-38-21-60 3-15 17-17 30-11 87 8 85 29 108 91 99 22-3 121-11 221-17l181-12 106 26c232 59 556 170 727 251 70 33 88 33 160-4zm-806-616c22-8 21-61-1-72-32-16-131-35-148-28-11 4-15 15-13 38 3 28 9 33 53 49 54 19 84 22 109 13z"/><path d="M9104.79 3817.38c-4-3-7-14-7-24s-11-26-25-35-23-20-20-24c3-5 65-38 138-73 140-69 272-151 399-248 42-32 79-55 82-50 8 12-118 155-200 226-207 182-335 261-367 228z"/></g>
		<g fill="#337599"><path d="M7912.79 10230.38c-358-92-563-150-577-164-20-20 202-696 394-1197 311-812 586-1340 901-1733 107-133 64-129 354-31 253 86 464 169 470 185 2 6-46 112-108 235-386 771-681 1492-985 2404-98 294-127 370-141 372-10 2-148-31-308-71z"/><path d="M2157.79 7530.38c-193-124-471-306-866-564-143-94-174-119-188-150-15-32-15-42-3-77 12-36 22-45 103-87 293-153 890-267 1664-317 69-4 128-5 132-2 3 3-12 35-34 71-96 155-365 727-509 1084-38 94-74 172-81 173s-105-58-218-131z"/></g>
		<g fill="#6d2f1b"><path d="M6704.79 8114.38c-20-22-37-42-37-45 0-14 42-25 61-15 16 9 26 8 44-4 30-20 32-20 44 2 8 15 2 26-32 60l-42 42-38-40z"/><path d="M7862.79 6700.38c-46-6-78-15-75-21 7-15 136-55 220-67 45-7 83-18 96-30 26-23 46-23 68 0 15 18 15 20-2 35-21 19-38 11-21-10 9-10 7-13-9-13-13 0-41 23-73 60-59 68-55 67-204 46z"/><path d="M6478.79 6172.38c-5-14-13-56-16-94l-7-69 55-48c31-26 58-43 61-38 9 14-1 211-10 212-5 0-23 14-41 31l-32 31-10-25z"/><path d="M6827.79 5778.38c-7-16-19-45-29-65l-17-35 31-47c18-26 40-56 50-67 24-26 27-59 9-87-17-27-2-39 18-15 11 13 19 77 9 77-1 0-3 34-5 75-2 42-12 93-21 115s-18 45-19 52c-4 26-16 24-26-3z"/><path d="M5913.79 5566.38c-3-5 10-24 29-42 19-19 35-39 35-46 0-10 297-291 341-322 20-14 49-10 49 7 0 8-130 129-362 334-48 42-89 73-92 69z"/><path d="M6637.79 5299.38c-96-24-175-61-173-82 1-10 4-65 7-123s6-106 6-108c0-1 11 4 24 13 13 8 30 13 39 9 18-7 60 13 52 26-3 5-18 5-35 0-26-7-30-6-30 10 0 11 6 23 14 27s60 53 117 107l103 99-23 18c-27 22-28 22-101 4z"/><path d="M7742.79 5213.38c-204-23-557-69-566-75-6-3 4-19 23-34 29-25 56-32 44-11-6 8 313 21 525 21h125l90-59c49-32 130-97 181-145 100-94 101-95 207-75 32 6 59 9 61 7 1-2 6-18 10-35l7-33h-44c-54 0-88-20-65-38 49-41 412-71 647-52 85 6 158 14 163 17 4 2 13 0 20-5 14-12 133 67 126 83-2 6-22 9-44 8s-198-5-391-9c-248-5-356-3-371 4-41 22-29 102 16 102 25 0 133 62 124 71-8 8-152-35-243-74-40-17-80-8-80 18 0 45-195 209-337 283-87 45-92 46-228 31z"/><path d="M5281.79 4500.38c-130-63-152-78-158-101-4-15-3-32 1-36 10-10 100 31 202 91 38 22 72 40 75 40s1-12-5-27c-6-17-6-30 0-36 10-10 26 20 35 62 2 9 8 27 13 41 11 25 8 40-5 40-4 0-75-33-158-74z"/><path d="M8660.79 4455.38c-40-15-75-29-78-33-12-11 29-26 94-33l64-7-31-14c-44-18-60-55-38-89 9-14 21-23 27-19 7 4 6 10-1 19-6 8-10 24-8 37 2 19 11 24 43 28 26 3 39 10 37 18-2 11 12 12 65 7 38-4 82-10 99-15 36-9 145 10 145 25 0 17-62 26-201 29l-135 2-1 32c0 17-2 33-5 35-2 2-36-8-76-22z"/><path d="M8419.79 4101.38c-22-26-111-230-105-239 3-5 12-7 20-4 19 8 53-11 53-29 0-8-19-53-42-100-31-62-39-88-31-96 13-13 28-6 118 54 86 57 327 125 463 131 33 1 46 21 14 21-15 1-222 201-222 215 0 3-3 5-7 6-5 0-41 10-81 23-101 31-164 37-180 18z"/><path d="M4474.79 3973.38c-9-6-15-15-12-20 4-5 11-7 16-3 5 3 16 1 24-6 9-7 15-8 20 0 7 11 26 14 23 3-2-5 2-8 7-8 6 0 9 3 8 8-2 4 7 7 18 7 17 0 19-3 10-14-8-10-9-16-1-21 13-8 32 4 25 16-8 12 2 12 131-6 61-7 147-14 193-13 76 1 84 3 98 25 12 18 13 27 4 36s-13 6-17-11c-8-29-54-30-72-2-12 19-23 20-235 20-134 0-229-5-240-11z"/><path d="M4866.79 3839.38c-1-5-2-18-3-29-2-29-9-31-249-88-76-18-137-37-135-43 7-24 125-8 435 59 53 12 100 43 85 58-4 4-30 11-57 15-28 3-55 13-62 22s-13 12-14 6z"/><path d="M4953.79 3529.38c-17-13-34-23-40-22-5 1-10-8-10-20-1-21-128-134-259-230-50-37-53-63-6-47 13 4 27 9 32 10 4 1 10 3 15 4 4 1 14 3 22 4 8 0 14 8 12 17-1 9 24 33 65 62 38 25 93 75 124 109 87 98 115 169 45 113z"/><path d="M6455.79 2468.38c-2-5-5-23-6-41-3-41 30-80 119-139 123-82 432-194 534-194 76 0 62 19-142 188l-195 163-139-2c-125-3-140-1-152 16-8 10-16 14-19 9z"/></g>
		<g fill="#d91c14"><path d="M6796.79 8053.38c-9-19-4-32 44-103 182-267 596-679 1032-1026 109-87 139-117 188-189 32-47 70-98 83-112 37-39 1-57-40-21-13 12-51 23-96 30-42 6-105 21-142 33l-65 22-149-22c-82-12-331-51-554-86s-433-67-468-71c-93-10-97-16-127-178l-25-140 37-38c39-40 63-38 63 6 0 36 56 139 96 178 22 20 71 52 109 70 64 30 78 33 165 33 78 0 107-5 159-25 79-31 142-85 171-147 32-69 26-184-17-273-41-90-92-167-154-234-58-64-94-86-137-86-47 0-56 20-49 110 4 44 2 82-2 84-5 3-27-14-50-39l-40-44 20-47c13-28 22-74 24-118 2-39 7-79 10-88 4-9 5-27 3-40-2-18-10-24-35-26-29-3-33 1-62 55-125 233-402 490-771 713-110 67-114 68-118 57-2-5 48-52 110-105 252-216 655-652 675-731 7-30-7-55-35-59-16-2-28 8-48 40-48 78-157 217-166 212-15-9-9-197 7-218 11-14 15-46 15-108 0-64 4-90 13-94 8-3 36 5 63 16 27 12 78 28 113 36 54 13 66 13 85 1 20-14 30-7 181 120 88 73 234 192 325 262 91 71 179 148 195 170 19 25 43 45 65 52 96 30 376 145 426 174 174 102 338 330 395 550 23 90 30 290 11 336-14 35-160 122-517 307-154 80-307 163-339 185-97 65-199 161-431 406-121 127-223 231-227 231s-12-10-19-21z"/><path d="M4532.79 7715.38c-67-40-158-169-195-273-24-69-50-213-50-278 0-131 55-332 130-475 44-85 45-85 111-85h59l24 48c22 44 135 305 150 346 3 10 8 17 10 15s34-74 71-159 78-176 91-202l24-48h190l30 42c58 80 104 280 98 428l-3 74-73 1c-85 0-86-1-96-90-13-122-39-256-49-252-9 3-84 157-126 258-30 74-104 215-121 233-16 17-25 18-57 10-36-8-41-15-91-114-51-103-114-278-128-352-8-46-16-48-38-5-33 65-49 151-53 297-4 128-2 160 20 267 25 119 57 200 111 279 37 55 19 71-39 35z"/><path d="M3831.79 7650.38c-3-8 13-40 36-70 72-99 108-207 120-366 8-115-5-449-18-462-5-5-20 22-35 59-45 120-107 265-158 371l-50 103-32-6c-41-9-48-17-82-95-15-36-33-78-40-95-31-70-69-166-100-255-32-89-36-95-64-98-27-3-31 1-49 51-60 158-74 390-33 541 26 99 81 200 135 248 33 29 38 38 25 43-57 22-211-121-281-260-111-221-55-584 119-767 31-31 59-56 62-53 4 2 34 6 66 9 33 3 65 12 71 18 15 17 75 155 102 238 62 190 61 187 68 160 15-53 126-258 176-325l53-70h120l32 65c45 90 74 245 75 390 0 269-94 494-256 612-44 32-54 34-62 14z"/><path d="M7357.79 5124.38c-85-3-154-9-153-13s37-36 80-71c236-192 372-410 392-630l6-69 51-17c152-52 253-173 289-348 16-75 13-119-12-212-27-98-116-250-147-250-7 0-20-8-30-19-9-10-34-26-55-36-31-14-50-35-92-104-79-129-155-203-264-257-49-24-116-50-148-58-129-33-314-29-514 10l-82 17-53-45c-69-58-106-80-199-117-165-65-316-74-479-30-92 24-211 87-227 119-9 18-29 29-78 42-37 10-85 28-108 40-61 30-159 124-180 172-23 51-47 172-47 235 0 60 33 159 74 219l31 47-29 85c-24 71-30 105-34 210-5 141 9 238 56 383 16 48 25 90 20 93-4 3-48-18-97-45-49-28-118-64-153-80l-65-30-26-108c-15-59-34-146-42-193-9-47-17-94-20-106-4-19-12-21-82-22-43-1-149 8-235 19-274 35-316 13-78-42 205-46 218-52 238-92 11-22 20-27 50-27 42 0 77-16 52-23-94-28-407-87-463-87-42 0-187-36-201-51-6-6-6-12 0-18 42-38 608-143 634-117 5 5 12 7 15 4 14-14-114-138-206-201-55-38-97-72-94-77 8-13 99 18 270 92 88 38 165 70 170 71 6 1 11-11 13-26 2-19-3-33-19-46l-23-18 23-64c29-80 116-256 166-334 97-152 273-345 346-377 29-13 47-47 35-66-23-38 371-228 713-343 392-133 1069-282 1094-242 3 5-60 63-141 129-139 112-149 119-187 116-134-10-573 173-629 262-21 32-20 124 2 134 9 4 100 7 202 6 119-2 220 2 285 11 125 18 260 3 342-39 66-33 77-17 19 26-25 18-45 35-46 38 0 8 142 54 280 91 63 17 156 44 205 61 135 47 161 69 95 83-53 12-50 85 4 85 11 0 64-9 116-20 139-30 370-58 583-71 274-16 609 6 992 67 197 32 437 82 449 94s4 14-114 40c-286 63-753 191-996 274-133 45-391 145-544 210-46 20-88 32-93 27-6-6-32-123-37-169 0-2-15-2-32 0-30 3-33 6-36 39-3 39 43 247 59 264 5 5 9 15 9 23 0 7 27 68 59 135 107 222 150 317 143 320-4 3-19 7-34 11-31 7-45 40-27 63 20 23 124 12 237-26 52-17 98-29 103-25 5 3 9 33 9 67 0 50-4 66-20 80-24 20-25 40-5 60 12 13 36 14 129 10 63-3 122-3 132 1 35 14-4 27-122 41-65 8-141 17-168 21l-49 7 54 20c30 11 63 28 75 38 11 11 32 19 46 19 53 0 429 203 410 222-5 5-46 4-103-4-185-24-583-11-704 24l-40 12 50 6c66 7 78 15 64 42-6 11-8 30-5 42 3 13 3 25 1 28-3 3-36-1-73-8-123-24-123-24-225 72-51 48-132 113-181 145l-90 59-190-2c-105-1-261-5-346-8z"/><path d="M8663.79 4056.38c-3-4 27-36 66-71 38-36 88-87 110-114l39-51 103 3c83 2 104 0 109-12 6-15 53-12 63 4 7 13-93 74-230 140-140 67-254 111-260 101z"/></g>
		<g fill="#ede7e2"><path d="M6591.79 8276.38c-216-245-756-540-1150-628-77-17-98-29-67-41 10-4 24-15 31-25s22-18 32-18c15 0 33-25 71-102 61-122 129-226 164-251 25-18 27-18 52-1 65 42 165 182 184 257 13 52 30 72 57 65 10-3 30 4 44 16 141 117 330 288 455 414 84 83 160 152 169 152 28 0 94 59 94 85 0 12 7 25 15 29 8 3 15 11 15 17 0 19-76 89-97 89-10 0-41-26-69-58z"/><path d="M5058.79 7700.38c-14-17 1-222 23-301 24-90 82-185 104-171 5 3-2 46-14 97-13 51-31 140-40 198s-23 113-30 122c-8 8-14 25-14 37 0 27-14 36-29 18z"/><path d="M5212.79 7613.38c-4-6 3-20 18-33 20-17 26-34 31-82 9-83 50-233 81-294 35-69 105-140 138-140 25 0 87 43 87 60 0 5-29 53-63 107-109 169-178 292-190 341-12 46-13 47-54 50-24 2-44-2-48-9z"/><path d="M5182.79 6345.38l-300-26 3-25c2-14 17-50 34-80 64-114 127-171 211-190l48-10 60 47c34 27 71 53 83 60 40 22 230 236 219 247-8 8-5 8-358-23z"/><path d="M4571.79 6291.38c-8-22 13-92 51-173 54-112 135-174 228-174 35 0 116 20 122 30 2 4-17 21-43 38-70 45-159 139-207 218l-42 69-52 3c-38 2-53-1-57-11z"/><path d="M4347.79 6286.38c-14-2-29-7-34-12-10-10 10-103 35-150 24-49 99-116 139-125 41-9 60 7 37 32-8 10-41 68-72 128-31 61-62 115-69 121-6 5-22 8-36 6z"/><path d="M7343.79 4278.38c-156-31-245-74-325-159-61-64-96-134-117-237-30-139 0-246 93-327 77-69 234-134 278-117 12 4 6 19-30 73-133 197-153 434-42 486 47 23 73 21 132-7 127-60 237-259 238-431 0-38-2-76-4-84-8-28 31-22 108 15 62 29 95 54 160 120 86 88 116 143 128 241 8 58-14 163-49 232-46 90-164 176-274 200-70 15-210 13-296-5z"/><path d="M5717.79 3823.38c-137-23-274-125-313-235-32-91-17-208 40-319 53-103 138-161 272-185 85-15 95-4 47 52-67 77-126 232-126 327 0 88 48 151 115 151 34 0 93-31 127-67 72-76 148-254 148-345 0-26 4-49 9-53 13-8 105 86 136 138 66 113 85 255 44 332-29 55-102 128-159 159-91 50-213 66-340 45z"/><path d="M7272.79 3554.38c-18-20-18-21 17-57 40-39 68-40 68 0 0 20-45 77-61 77-3 0-14-9-24-20z"/><path d="M5754.79 3207.38c-15-14-6-40 22-67 54-52 97-9 45 45-27 28-53 37-67 22z"/></g><path d="M7617.536 1736.646c-6.754.154-13.988.738-21.738 1.738-29 4-87.008 10.996-128.008 15.996-293 33-968 210.008-1365 358.008-258 97-465.992 196.989-576.992 277.989-51 38-68.008 60.996-68.008 90.996 0 11-17.996 37.007-40.996 58.007-46 46-172 200-210 260-66 103-81.008 129.004-128.008 224.004-29 56-60.992 125.996-71.992 155.996-11 30-22.004 55-24.004 55s-32.996-14-70.996-30c-140-63-350.004-120-444.004-120-18 0-47-9-65-20-40-25-78.992-14-96.992 25-18 40 .988 65 102.988 130 121 76 251.008 169.004 268.008 189.004 12 14 10.988 15.996-7.012 15.996-25 0-289.992 62-386.992 90-38 11-108 29.997-155 40.997-105 26-112.004 29.003-129.004 64.003-12 24-11.004 30.004 5.996 54.004 18 23 27.004 25.993 89.004 26.993 46 1 112.004 13.007 199.004 38.007 72 20 168 45.989 215 57.989l85 22.011-90 22.989c-49 13-121 30.007-160 38.007-38 8-108 28-155 45-47 16-93.996 30-105.996 30s-33.008 8.997-48.008 20.997c-34 27-33.996 68.003-.996 99.003 24 23 25.008 22.997 83.008 5.997 146-41 792.992 9.003 821.992 64.003 5 8 15.008 47 23.008 85 18 81 64 244.008 75 263.008 4 7 31.992 22.996 61.992 35.996 215 89 439 187.993 770 336.993 124 56 245 110.003 270 119.003 25 10 66.008 27.004 93.008 39.004l46.992 21.993-83.008 82.011c-231 229-577.996 630.996-745.996 865.996-24 34-46.996 60.996-50.996 60.996s-44.996-31.996-90.996-70.996c-101-85-112.996-89.996-165.996-75.996-38 10-46 8-100-20-112-60-263.004-60.015-364.004-1.015-35 20-49.004 24.015-69.004 16.015-13-5-56-9.008-95-8.008-139 1-195.008-9.007-253.008-48.007-60-41-132.992-58.989-266.992-67.989-80-5-94.008-3.004-123.008 15.996-20 12-40.988 39.004-52.988 64.004-15 34-25 45-50 50-49 9-95.004 62.993-109.004 126.993-11 48-10.008 65.011 6.992 132.011l19.004 76.992h-145c-202 0-762.996 27-955.996 45-88 8-212 20-275 25-267 24-658 88.993-850 141.993-138 38-254.004 80.003-344.004 124.003-49 24-100.996 44.004-115.996 44.004-31 0-49 18.004-65 64.004-15 44-1.992 93.004 33.008 124.004 17 15 51.988 60.992 77.988 101.992 81 129 250.008 343.993 383.008 486.993 139 148 504.004 512 664.004 660l97.988 91.015-10 38.985c-6 21-10.996 49.011-10.996 62.011 0 30 36.004 70.996 64.004 70.996 23 0 65.996-36.992 65.996-56.992 0-18 9.008-16.004 28.008 5.996 38 43 532.992 448.992 751.992 616.992 25 19 71.996 56.012 105.996 82.012 62 48 130.008 97.985 283.008 208.985 47 34 112.996 82.015 145.996 106.015 33 24 103 72.985 155 108.985s115 80.011 140 97.011c76 53 633.992 422.992 711.992 471.992 40 25 116.008 72.004 168.008 104.004 99 60 136.992 84.008 206.992 128.008 24 15 45.012 26.992 47.012 26.992 3 0 40.004 22.004 84.004 49.004 72 44 446.992 253.004 651.992 364.004 47 26 231 118.989 410 207.989 179 88 333.008 165 343.008 170 10 6 102 48 205 95s190.996 89.003 195.996 94.003c6 6 3.996 37-4.004 80-13 69-13 71 10 95 13 14 33.004 25 44.004 25 27 0 65.996-39 65.996-65 0-13 2.996-36.008 5.996-53.008l5.996-30.996 47.012 19.004c25 10 106.996 44 180.996 75 164 67 327.996 133 505.996 200l70.996 26.992-16.992 70c-31 119-35.004 166.004-14.004 189.004 39 44 114.004 4.996 114.004-59.004 0-19 4.992-62.992 11.992-96.992 13-73-6.992-72 178.008-5 63 23 135 47.996 160 55.996 29 9 49 21.996 55 35.996 13 30 59.996 46 85.996 30 17-11 43.012-4.988 177.012 37.012 478 152 752.996 231.996 810.996 235.996 25 1 99.996 15.004 165.996 29.004 329 74 684 131.988 860 142.988 55 3 107 9.004 115 14.004 20 11 37.996 11.008 60.996-1.992 35-18 40.008-50.996 18.008-130.996-40-143-150.004-452.008-229.004-638.008-81-191-166.992-372.992-246.992-516.992-19-36-32.004-67.015-29.004-71.015 6-5 74.996-14.993 285.996-41.993 134-17 418.008-69.996 493.008-90.996 37-11 75.996-19.011 85.996-17.011s25.004-2.996 34.004-10.996c14-11 19.992-10.997 31.992-.996 12 10 15.996 8.992 20.996-3.008 3-10 23.012-17.996 47.012-20.996 176-23 272.992-38.993 281.992-46.993 5-5 21-9.003 35-9.003 43 0 70-26.008 70-68.008 0-31-10.996-52-65.996-120-120-150-553-595.992-760-781.992l-103.008-93.008 92.012-41.992c325-148 626.992-314.004 901.992-494.004 55-36 104-68 110-70 19-8 129.992-92.993 151.992-116.993 33-36 31.016-91.996-3.984-125.996-16-14-39.008-26.015-53.008-26.015-17 0-44.996-18.989-90.996-62.989-85-83-216.004-199.004-224.004-199.004-3 0-81.008-60.007-173.008-133.007-145-116-292.992-228.985-396.992-303.985-47-33-346.992-237.008-366.992-248.008-9-5-81-48.996-160-95.996-79-48-170.008-101.004-203.008-119.004s-107-58-165-90c-58-31-172.992-89.996-256.992-130.996l-151.016-74.004 5-31.992c4-25 0-37.012-20-57.012-33-33-51.992-32.988-86.992 2.012l-28.008 28.985-108.984-43.985c-99-41-184.008-73-368.008-140-38-14-96.004-35.008-129.004-48.008l-57.988-21.992 57.988-49.004c92-78 104.004-92.008 104.004-118.008 0-27-41.996-65.996-70.996-65.996-20 0-66.004 41.993-149.004 136.993l-55 62.011-125-32.011c-85-22-126.008-37.989-128.008-47.989-1.734-10.054 2.192-25.73 10.684-45.176v-.02a86.486 145.946 0 0 1-12.676-30.585 118.919 372.973 0 0 0-56.328-272.168 143.243 340.54 0 0 1-.488-8.3l-6.192 6.25-46.992-92.012c-87-172-197.008-304.996-328.008-395.996-38-26-166.992-90.997-181.992-90.997-20 0-274.004-130.007-299.004-153.007-14-13-61.996-47.993-105.996-76.993-139-92-304.008-220-498.008-385l-105.996-90 35-3.007c19-2 65.012 4.011 102.012 12.011 37 8 84.988 15.004 107.988 14.004 41 0 79 3.992 410 46.992 105 14 206 25 225 25 34 1 115.004 19.997 134.004 30.997 25 16 113-9 180-50 39-24 93-56.989 120-72.989 62-38 174.996-129.015 215.996-176.015l30.996-35 72.012 22.011c175 56 260 81.996 390 120.996l139.004 41.993 25.996-20c34-25 38.996-70.993 10.996-96.993-12-11-36.996-28-55.996-40-18-11-79.004-47-134.004-80l-100.996-60 142.988-3.007c251-5 574.016 30.011 611.016 67.011 17 17 61.996 12.993 80.996-8.007 23-26 17.996-81.997-9.004-95.997-11-6-47-36.007-80-68.007-33-32-76-66.989-95-77.989s-46.992-27.011-61.992-37.011c-64-40-238-142.985-255-148.985-18-8 160.992-38.004 281.992-49.004 93-8 135-64.004 85-114.004-16-16-32.996-20-80.996-20-33 0-68.012-4.003-77.012-9.003-39-21-252.984-62.989-343.984-67.989l-98.008-6.015v-143.985l101.992-46.015c86-40 169.012-86 272.012-150 112-69 275-195.996 375-290.996 74-71 217.988-235.989 277.988-317.989 46-64 133.008-209.008 133.008-223.008 0-15 37.996-27.003 45.996-14.003 3 5 15.012 2.003 27.012-5.997s53-16.996 90-20.996c55-6 73.992-12.004 96.992-34.004 17-16 30-37.003 30-49.003 0-39-32-56-150-80-63-12-155-30.997-205-40.997-153-32-480-79.992-695-101.992-270-28-737.996-31-965.996-5l-150.996 16.992-61.016-25c-34-14-66.984-25-73.984-25-8 0-30.004-9.003-49.004-19.003-51-28-163.004-63.997-314.004-100.997-71-17-136.004-33.996-144.004-35.996-9-3-.988-18.007 27.012-48.007 78-85 89.984-142 38.984-180-26-19-30-19-55-5-15 8-37.992 37.996-51.992 65.996-23 47-29 53.004-65 59.004-22 3-76 14-120 25-77 17-84.004 16.996-194.004.996l-115-17.989 30.996-24.004c17-14 84.004-69.996 149.004-125.996 156-132 362-295.004 460-364.004 102-72 114.004-85.007 114.004-118.007 0-41.125-22.977-60.807-70.254-59.727zm-202.656 141.66c5.625-.136 9.027.2 9.902 1.074 2 1-60.988 52.997-137.988 115.997-78 63-226.996 185.011-330.996 272.011l-190 157.989-140-1.993c-136-3-141.004-2-159.004 20-24 29-24 46 0 70 17 17 40.992 19.004 271.992 24.004 140 2 268.004 8.985 284.004 13.985 30 10 189.996-4.993 245.996-21.993 24-8 24-6.992 5 13.008-18 21-18 21.989 0 27.989 11 4 39.004 15.003 64.004 24.003 25 10 99 32.004 165 49.004 158 42 334 97.996 365 115.996 23 13 24.004 14 4.004 15-51 1-73 77-30 105 21 14 34 13 150-10 365-72 765.996-91 1165.996-55 224 21 796.996 114.008 815.996 133.008 2 2-63.004 17.996-144.004 35.996-504 114-980.984 262.993-1398.984 436.993-85 36-157.008 63.011-158.008 62.011-2-2-8.004-34.011-14.004-72.011-13-85-35.988-115-77.988-100-47 16-50.004 48-19.004 185 16 67 33.996 133.007 40.996 148.007 8 14 34.008 69.989 58.008 122.989 51 109 72.988 129.007 112.988 103.007 14-9 27.996-22.992 30.996-31.992s-12-53.004-35-99.004c-23-47-41.992-87.004-41.992-89.004 0-8 36 12.008 105 58.008 103 68 310.008 119.989 528.008 132.989 95 6 108.992 5.003 126.992-10.997 25-23 25.992-49.007 1.992-73.007-15-15-41.988-19.996-132.988-25.996-63-3-125.996-8.993-140.996-11.993-34-8-43.004-40-19.004-70l17.988-23.007 21.016 20.996c18 19 24.992 20 46.992 10 14-7 27.992-18.989 31.992-27.989 3-8-4.992-58-16.992-110-18-73-29.008-100-48.008-115-32-25-37.988-24.004-67.988 5.996-14 14-29.008 25-33.008 25-8 0-25.004-31-19.004-35 10-7 248.008-91 368.008-130 222-71 743.996-203.992 755.996-191.992 2 2-20.004 41.989-49.004 87.989-167 266-335.992 438.003-601.992 614.003-248 165-541.996 289.004-745.996 314.004-77 10-109.004 29.993-109.004 66.993s41.008 57.996 103.008 50.996c42-4 168.984-38.985 233.984-63.985 20-8 18.008 109.992-1.992 126.992s-18.992 53.008 3.008 73.008c15 14 42.988 16.989 152.988 17.989 74 1 148.004 5.007 164.004 8.007 45 11-129.004 24.996-194.004 15.996-60-8-90.996 9.993-90.996 51.993 0 34 42.004 73.007 79.004 73.007 37 0 263.996 116.004 390.996 199.004 81 53 90 60.996 60 55.996-19-3-195-7.996-390-10.996-354-6-354.992-6.004-381.992 15.996-30 23-37.012 64.997-17.012 100.997 10 19 9.012 19.007-27.988 3.007-75-32-80.004-33-104.004-20-13 6-30.008 24.996-38.008 40.996-32 70-176.988 189.008-317.988 263.008-53 27-93 41.996-115 40.996-76-3-620-70.007-635-78.007-8-4 24.992-37.004 86.992-89.004 150-125 250-246 315-385 38-78 75-209.985 75-263.985 0-23 5.008-35.004 18.008-39.004 103-34 219-127.011 265-212.011 86-158 87.996-314.989 5.996-477.989-50-100-86-137-205-210-21-12-54.004-52-84.004-100-67-108-128.008-173.996-213.008-230.996-172-115-407.988-144-707.988-85l-97.012 17.989-57.988-49.004c-169-142-443-202.996-660-145.996-101 26-220.012 84-247.012 120-14 19-37.996 34-75.996 45-131 38-264.996 140.004-300.996 229.004-21 52-49 184.996-50 235.996 0 44 37.004 149.996 74.004 210.996l34.004 58.008-18.008 48.007c-70 185-63 408 20 650 17 47 28 88 25 90-3 3-63.996-24.004-135.996-59.004-149-72-150.008-73.003-183.008-219.003-9-41-21.992-95-26.992-120-6-25-17-78.004-25-119.004s-19-79.989-25-87.989c-17-20-66.996-16.007-80.996 6.993-12 19-23.008 20.003-228.008 19.003-234-1-235.008-2.003-38.008-44.003 127-27 178.016-50.008 196.016-88.008 13-26 11.996-30.989-9.004-52.989-12-13-29.008-24.003-38.008-24.003-8 0-28-4-45-10-17-5-126.988-32.997-242.988-60.997-117-29-213.008-55.003-213.008-59.003s10.008-10.008 23.008-13.008c12-2 66.992-16 121.992-30 118-31 250-53.989 355-62.989 76-6 100-16.003 100-39.003 0-11-133-126-265-230-19-15-18-16.004 15-9.004 41 8 130.004 42.007 294.004 113.007 112 50 118.992 51 136.992 35 25-22 24.012-41.996-2.988-70.996-22-24-22-24.015-5-76.015 34-97 156.992-330.992 221.992-421.992 79-110 188.008-223.008 263.008-273.008 48-31 58-43 60-70 4-39 22.996-51.992 200.996-141.992 318-159 775.996-308 1230.996-400 149.625-30.625 297.715-55.118 337.09-56.075zm-1272.09 1062.07c169 0 327.996 63 430.996 170 71 75 69.004 74.004 194.004 39.004 91-25 288-47 360-40 133 13 255.996 59 340.996 125 38 31 115.012 127 107.012 135-2 2-33.008-1.996-68.008-10.996-51-12-85.004-13-174.004-5-193 17-312.988 68.997-432.988 185.997-61 60-74.004 79-89.004 130-25 87-22.996 156 9.004 260 57 182 134.996 280 280.996 350 120 57 286.004 94 424.004 95h51.992v48.007c0 191-178 441.993-440 621.993l-94.004 64.003-156.992-22.011c-87-12-197-33.989-245-47.989-100-29-129.004-28.007-129.004 1.993 0 38 319 321 690 610 77 60 171.996 142.011 210.996 182.011 40 39 77.996 71.992 85.996 71.992 18 0 323.012 121.997 392.012 155.997 249 125 438 451.003 435 754.003-1 133-3.004 137.008-104.004 198.008-49 30-197 111-330 180-320 166-387.008 204-473.008 270-89 67-706 693.996-710 720.996-2 11 6.016 29.004 16.016 39.004 19 19 18.996 20.989.996 47.989-20 31-56 52.011-80 47.011-9-2-22-15.004-30-29.004-19-36-164.004-161.007-289.004-248.007-281-197-600-341.997-905-410.997-60-14-128.992-25-151.992-25-42 0-43.004 0-24.004-19.003 11-11 21.996-40.989 25.996-67.989 45-322 173.996-511.011 275.996-402.011 16 17 29.004 34.996 29.004 40.996 0 5-13.004 26.015-29.004 46.015-40 51-170.996 294.985-170.996 318.985 0 25 29.992 53.007 56.992 53.007 28 0 42.004-19.003 114.004-159.003 66-128 122.004-200.997 154.004-200.997 46 0 169 169.993 195 266.993 11 44 33 63.007 70 63.007 30 0 267.004 204.993 469.004 406.993 189 189 201.004 196.011 244.004 142.011 21-28 26.996-30.004 45.996-19.004 32 17 59-5.007 105-83.007 145-247 561.004-668 1039.004-1050 112-89 147.984-124.996 193.984-190.996 31-44 69-96 85-115 20-26 25.016-37.989 16.016-47.989-20-25-47.012-13.015-102.012 48.985l-55.996 61.015-98.008-12.011c-106-14-414.992-59.997-961.992-145.997-195-30-363.996-55-375.996-55-18 0-23.008-10.992-38.008-76.992-19-88-55.996-335.007-55.996-373.007 0-17 12.992-36.004 41.992-59.004l41.016-35-7.012 68.007c-23 225 114.012 410 332.012 445 165 26 343.992-54.004 406.992-184.004 29-61 31-147 5-225-57-172-241.004-390-329.004-390-12 0-32.988 11.997-47.988 25.997-24 24-25.004 29.011-19.004 102.011l6.992 76.993-30-35c-17-19-34.996-51-40.996-70-5-20-16.004-44-24.004-55-13-18-9.996-26 34.004-90 63-92 66.996-105.993 35.996-141.993-24-27-25.992-27.007-51.992-13.007-15 8-45.008 45.007-68.008 83.007-148 243-348.988 432.989-677.988 637.989-46 29-93 59.011-105 67.011-46 29-21 1.985 80-86.015 226-199 457.992-445 606.992-645 37-50 42.004-61.985 34.004-83.985-23-66-77.012-56-127.012 25-20 32-55.996 83.993-80.996 116.993l-45.996 58.007v-94.004c0-52 4.004-99 9.004-105 15-14 43.992-413.007 31.992-428.007-6-7-29.988-18.996-52.988-25.996-24-7-101.008-37-173.008-65-71-29-141.992-55.004-156.992-59.004-14-3-147-60-295-125-184-82-267.004-122.989-264.004-132.989 9-27 1.992-55-33.008-140-76-180-97-387.007-55-538.007 11-41 23.012-77.993 27.012-81.993s29.984 3.993 58.984 16.993c152 73 381.004 79.007 529.004 13.007 101-44 209.004-150.004 244.004-239.004 25-62 22.004-140.003-10.996-244.003-49-160-159.004-278-349.004-375-16-8-30-17.997-30-20.997 0-17 131-43.007 215-43.007zm-388.34 154.336c21.006-.526 12.969 12.91-12.656 46.66-81 106-118.012 216.005-112.012 334.005 3 76 5.016 79.996 41.016 115.996 48 49 101.996 52 165.996 10 95-63 210.996-281.985 210.996-398.985 0-39 12.004-35.011 59.004 17.989 48 55 84.996 127.004 105.996 209.004 41 161-43.008 296.996-223.008 360.996-114 40-272.984 30.004-398.984-25.996-119-53-183.008-150.004-183.008-279.004 0-83 14.008-140.993 53.008-216.993 44-87 99.992-127.004 221.992-159.004 36-9 59.056-14.351 71.66-14.668zm58.34 39.669c32 0 30.992 10.007-3.008 43.007-32 31-41.992 33.996-41.992 10.996 0-29 21-54.004 45-54.004zm6033.438 128.69c-2.79.02-5.648.253-8.555.626 2.902-.372 5.77-.601 8.555-.625zm7.5.41c.63.07 1.234.204 1.855.294-.62-.09-1.225-.223-1.855-.293zm-19.864.9c-1.816.322-3.634.64-5.488 1.093 1.856-.454 3.67-.772 5.488-1.093zm26.817.332c.82.196 1.617.45 2.421.683-.8-.233-1.601-.485-2.421-.683zm-35.899 1.777c-1.922.55-3.845 1.128-5.801 1.816 1.957-.689 3.878-1.265 5.801-1.816zm42.852.43zm-52.715 2.93zm59.023.1c.71.4 1.418.795 2.11 1.23-.69-.435-1.401-.83-2.11-1.23zm5.977 3.964c.62.478 1.252.936 1.855 1.446-.6-.51-1.234-.967-1.855-1.446zm-74.688.273zm80.254 4.668c.54.551 1.099 1.06 1.621 1.641-.52-.58-1.082-1.09-1.621-1.64zm-90.039.644c-2.181 1.3-4.364 2.726-6.562 4.18 2.197-1.453 4.383-2.88 6.562-4.18zm-10.351 6.7c-2.202 1.538-4.409 3.21-6.621 4.902 2.209-1.688 4.423-3.366 6.621-4.902zm-10.117 7.558zm-65.391 45.352c-7.828 3.816-15.676 7.105-23.379 9.765 7.696-2.658 15.559-5.953 23.379-9.765zm-23.379 9.765zm-11.426 3.516c-8.5 2.125-18.117 5.057-28.633 8.691 10.516-3.634 20.133-6.566 28.633-8.691zm-28.633 8.691c-21.031 7.27-45.632 17.332-71.914 29.258 26.282-11.924 50.883-21.989 71.914-29.258zm-71.914 29.258c-26.281 11.926-54.25 25.711-82.031 40.45 27.781-14.737 55.75-28.525 82.031-40.45zm1238.399-16.66c25.429 5.504 49.621 11.726 72.402 18.555-22.781-6.828-46.973-13.051-72.402-18.555zm-1003.008 62.754c-2.554 2.403-5.311 4.888-7.656 7.207 2.344-2.319 5.103-4.805 7.656-7.207zm-4549.004 10.039c1.585.06 2.664.356 3.164.918 2 2-9.992 22.992-26.992 46.992-68 92.999-129.004 257.006-129.004 343.006 0 107 62.992 186.993 146.992 186.993 64 0 123.008-30.993 183.008-96.993 93-102 154.008-259.007 148.008-383.007l-3.008-70.997 30 6.993c101 21 277.004 177 309.004 275 27 82 30.996 154.007 10.996 228.007-24 92-46.004 131.004-109.004 189.004-63 57-132.004 86.993-234.004 101.993-74 11-67.996 11.003-170.996-.996-162-19-303-74.004-380-149.004-56-54-107.004-163.004-124.004-264.004-26-153 17.016-255.004 141.016-334.004 42.187-27.188 181.038-80.73 204.824-79.903zm5796.348 28.809c5.954 4.945 11.423 9.961 16.386 15.058-4.963-5.097-10.432-10.113-16.386-15.058zm-5729.805 8.73c10.375-.375 17.133 7.379 13.633 23.379-3 12-10.016 28-16.016 35-26 33-55.988 2.992-32.988-33.008 11-16.5 24.996-24.996 35.37-25.37zm5582.363 43.379c1.88 1.836 2.734 3.5 2.481 4.961.25-1.46-.6-3.125-2.481-4.961zm-13.242 14.023c-16.75 6.688-46.496 17.004-82.246 28.692 35.742-11.685 65.493-22.003 82.246-28.692zm-1394.629 13.594c-37.595 21.843-79.189 47.972-114.726 72.54 35.537-24.57 77.132-50.696 114.726-72.54zm1148.008 69.746c-12.157 4.619-22.142 8.732-30.391 12.383 8.247-3.65 18.24-7.767 30.391-12.383zm366.152 12.95c-28.78 6.42-84.281 21.421-142.031 38.671 57.75-17.25 113.25-32.25 142.031-38.671zm-1662.031 13.671c-25.125 18.75-49.362 38.597-72.578 59.317 23.216-20.719 47.453-40.567 72.578-59.317zm1466.348 41.875c-15.915 5.233-30.028 10.198-42.774 15.196 12.75-5 26.852-9.961 42.774-15.196zm-106.602 48.38c-9.124 6.5-17.793 13.698-26.465 21.933 8.672-8.234 17.34-15.434 26.465-21.934zm-1121.972 81.015c-3.203 3.484-6.516 6.48-9.766 8.73 3.25-2.25 6.562-5.246 9.766-8.73zm-9.766 8.73c-4.5 2.875-8.975 5.112-13.379 6.72 4.404-1.608 8.879-3.845 13.379-6.72zm-13.379 6.72c-6.579 2.4-12.999 3.397-19.18 3.046 6.175.348 12.608-.648 19.18-3.047zm-52.52-15.138zm15.528 13.047c5.578 3.047 11.51 4.773 17.715 5.137-6.198-.366-12.143-2.094-17.715-5.137zm-427.246 79.2c-10.441 16.055-20.221 32.226-29.297 48.437 9.08-16.219 18.851-32.375 29.297-48.437zm1396.347 94.59c.24-.08.45-.06.66.08a.758.758 0 0 0-.66-.08zm.66.08c.34.211.64.896.94 1.6-.3-.707-.6-1.397-.94-1.6zm-1.406.507c-7 8-19.492 24.679-34.961 46.29 15.464-21.603 27.963-38.291 34.961-46.29zm-1450 2.012c-4.74 10.343-8.5 19.441-11.719 28.242 3.22-8.806 6.976-17.894 11.719-28.242zm1452.774.293c.14.47.26 1.119.39 1.7-.13-.587-.25-1.228-.39-1.7zm1.66 11.485c.23 2.895.32 6.769.45 10.39-.13-3.661-.22-7.47-.45-10.39zm-156.699 3.046c-50.11 69.961-90.164 126.881-119.004 169.121 28.84-42.242 68.894-99.158 119.004-169.12zm157.48 15.645c.1 7.081 0 14.922-.22 23.516.24-8.556.3-16.46.22-23.516zm-1469.648 5.566c-2.898 8.862-5.223 17.566-6.934 26.953 1.711-9.382 4.038-18.096 6.934-26.953zm1404.355 43.887c-26.706 38.387-57.239 83.616-83.066 122.969 25.828-39.352 56.359-84.584 83.066-122.969zm22.09 88.066c-5.5 6.5-12.125 13.688-19.375 21.094 7.251-7.406 13.875-14.594 19.375-21.094zm-287.891 102.48zm136.739 9.884c.55.835 1.63 1.233 3.222 1.191-1.579.04-2.67-.36-3.222-1.191zm250.605 28.222zm-18.223 42.149zm-146.367 31.66c.17.253.24.62.19 1.113 0-.502 0-.86-.19-1.113zm.19 1.113c-.18 1.973-2.078 5.809-5.351 11.094 3.274-5.285 5.172-9.121 5.351-11.094zm-259.053 15.485c6.375 3.187 15.501 5.747 26.504 7.676-11.002-1.93-20.129-4.489-26.504-7.676zm-991.699 5.683c8.677 7.27 17.826 14.352 27.5 21.29-9.674-6.938-18.823-14.02-27.5-21.29zm27.5 21.29c9.673 6.936 19.869 13.734 30.644 20.429-10.775-6.695-20.971-13.493-30.644-20.43zm30.644 20.429c10.775 6.695 22.12 13.282 34.102 19.824-11.982-6.542-23.327-13.13-34.102-19.824zm971.641-38.008c16.219 2.016 35.281 2.922 55.156 2.735-19.874.187-38.938-.718-55.156-2.735zm-1048.984 133.907c.64 1.265.65 2.214-.1 2.714.75-.502.75-1.44.1-2.715zm1120.898 22.714c-20.75 19.5-40.805 36.813-60.977 52.422 20.172-15.61 40.227-32.922 60.977-52.422zm-76.152 63.809c-35.479 25.876-71.898 46.92-113.536 65.703 41.644-18.785 78.054-39.824 113.536-65.703zm-113.555 65.703c-23.797 10.734-49.285 20.738-77.285 30.488 27.994-9.748 53.493-19.756 77.285-30.488zm-77.285 30.488c-18.743 6.498-34.685 11.689-49.649 15.86 14.97-4.17 30.899-9.36 49.649-15.86zm255.683-4.57c-20.965 14.863-42.648 28.715-65.195 41.66 22.547-12.946 44.23-26.796 65.195-41.66zm-65.195 41.66c-33.816 19.416-69.577 36.812-107.754 52.54 38.183-15.73 73.933-33.121 107.754-52.54zm-107.773 52.54c-25.455 10.485-51.977 20.23-79.727 29.355 27.744-9.123 54.277-18.872 79.727-29.356zm-599.2 4.062zm59.473 24.297c18.689 6.596 33.511 11.635 47.129 15.8-13.622-4.167-28.433-9.202-47.129-15.8zm-1236.914 225.488c-1.857 1.476-3.129 2.558-6.758 5.254 3.578-2.66 4.957-3.817 6.758-5.254zm-3.203.586c-2.548 1.583-6.814 4.355-10.664 6.836 3.74-2.409 8.171-5.286 10.664-6.836zm-16.602 14.16c-4.412 3.206-8.426 6.152-14.14 10.254 5.887-4.226 9.626-6.973 14.14-10.254zm-8.105 1.797c-10.599 6.957-31.075 20.724-46.797 31.21 15.811-10.544 36.214-24.267 46.797-31.21zm-228.516 61.68c-7.12 4.37-14.186 8.671-21.367 13.125h21.367v-13.125zm129.024 4.707c-28.551 19.206-67.99 45.92-105.567 71.347 37.588-25.434 77.012-52.138 105.567-71.347zm-3815.567.273c2.665-.175 3.887 1.316 3.887 4.316 0 2-74.996 69.992-165.996 151.992-91 82-171.012 150.012-177.012 152.012-13 3 26.012-34 207.012-200 82.062-75.563 120.56-107.562 132.11-108.32zm3825.352 1.035c-11.877 8.377-18.249 12.981-32.012 22.656 13.83-9.72 20.074-14.238 32.012-22.656zm-160.293 7.187c-12.154 7.538-24.46 15.278-36.777 23.047 12.318-7.77 24.623-15.509 36.777-23.047zm-47.246 29.63c-11.347 7.189-22.804 14.558-34.278 21.933 11.472-7.374 22.933-14.746 34.278-21.934zm-47.031 30.097c-24.966 16.13-50.364 32.964-75.84 49.902 25.47-16.933 50.88-33.775 75.84-49.902zm-124.707 82.715c-16.81 11.365-33.617 22.749-50.586 34.414 16.959-11.658 33.787-23.056 50.586-34.414zm-3457.188 7.656l6.992 207.989 7.012 209.003-157.012 155c-145 142-320.988 292.993-447.988 381.993-90 63-84.004 63-139.004 0-86-96-87.008-76.985 11.992-198.985 229-283 461.008-539.004 508.008-559.004 16-7 71-54.004 120-104.004l90-91.992zm3357.324 60.957c-17.085 11.924-34.132 23.851-51.328 36.035 17.182-12.173 34.257-24.12 51.328-36.035zm-103.38 73.242c-16.416 11.805-32.785 23.583-49.256 35.586 16.462-11.996 32.85-23.788 49.257-35.585zm-103.378 75.41c-16.276 12.033-32.523 24-48.808 36.192 16.274-12.183 32.543-24.168 48.808-36.191zm-101.953 76.348c-16.63 12.62-33.23 25.18-49.824 37.93 16.585-12.743 33.203-25.317 49.824-37.93zm-104.375 80.274c-15.57 12.128-31.143 24.194-46.64 36.406 15.489-12.206 31.078-24.284 46.64-36.406zm-102.09 80.547c-15.424 12.326-30.881 24.593-46.191 36.972 15.3-12.37 30.777-24.654 46.19-36.972zm287.852 2.207c-16.864 12.912-33.977 26.322-51.191 39.941 17.21-13.616 34.33-27.032 51.19-39.941zm-2748.008 12.011l6.016 22.989c4 13 59.996 76.015 125.996 141.015 102 101 122.992 118 146.992 115 15-2 35-14.007 45-28.007 16-20 17.004-31 9.004-60-5-19-13.008-63.008-18.008-98.008-9-61-7.984-62 11.016-45 33 31 105.984 138.004 133.984 199.004 19 42 27.012 76.003 27.012 119.003 1 84-26.012 125.004-107.012 164.004-148 71-313.996 31.992-390.996-93.008-37-59-44.996-139.988-25.996-262.988 12-74 11.992-85.015-3.008-101.015-16-17-14.988-19.996 12.012-45.996l27.988-26.993zm2683.73 38.34c-16.068 12.812-32.23 25.821-48.534 39.18 16.3-13.353 32.47-26.373 48.535-39.18zm-323.867 28.614c-14.908 12.225-29.89 24.414-44.648 36.66 14.753-12.242 29.746-24.44 44.648-36.66zm270.84 14.218c-16.796 13.795-33.736 27.95-50.722 42.266 16.987-14.313 33.926-28.474 50.722-42.266zm-5390.234 31.309c9.082-.393 21.797.645 40.547 2.52 32 4 71.996 9.988 90.996 12.988l34.004 6.015-45 22.989c-114 58-145.016 170.011-76.016 282.011l20 31.992h-30.996c-27 0-30.996-5.007-40.996-38.007-31-117-40.004-263.985-19.004-303.985 6.25-11.25 11.328-15.869 26.465-16.523zm5322.91 25.02zm-301.738 11.074c-14.715 12.39-29.543 24.768-44.063 37.148 14.513-12.373 29.356-24.764 44.063-37.148zm-4109.278 32.949c25.887.68 51.528 4.094 73.653 10.469l37.988 10-55 60c-35 37-72.992 95.004-101.992 154.003l-47.012 95-60.996-1.992c-75-2-135.996-8.008-135.996-13.008 0-3 14-41.992 30-86.992 42-113 90.008-185.004 143.008-209.004 29.375-13.125 73.203-19.609 116.347-18.476zm-597.363 39.473h38.008l-23.008 38.007c-28 43-60.996 131-70.996 185-5 27-11.996 36.992-25.996 36.992-35 0-109-112.992-110-166.992 0-43 102.992-93.007 191.992-93.007zm4613.457 7.128c-15.02 12.994-30.201 25.998-44.961 38.946 14.755-12.943 29.948-25.956 44.96-38.946zm-4357.441 2.872h38.984l-27.988 58.007c-16 31-37.996 89.985-50.996 128.985l-23.008 73.007H4319.782l9.004-41.992c32-146 97.012-218.007 197.012-218.007zm642.968 15.937c12.337.337 20.024 5.992 34.024 16.055 95 69 170.008 135 238.008 210 42 47 76.992 88.011 76.992 92.011 0 6-78 6-115 0-11-2-128.004-13.004-259.004-24.004-131-11-240.988-21.003-242.988-24.003-3-2 9.984-34.993 28.984-71.993 38-78 106-156.996 145-170.996 54.562-19.125 78.122-27.503 93.984-27.07zm3979.454 4.316c-4.345 3.914-8.663 7.863-13.008 11.797 4.34-3.93 8.667-7.888 13.008-11.797zm-5349.61 2.247c6.125.273 9.18 10.867 9.18 34.492 1 21 7.004 70.008 14.004 108.007 8 39 12 72.004 10 74.004s-13.996-18-25.996-45c-25-56-32-163.996-10-170.996 1-.375 1.937-.547 2.812-.508zm4991.914 56.015c-14.702 13.103-29.676 26.26-44.062 39.278 14.387-13.019 29.36-26.175 44.062-39.278zm-2418.125 14.238c.666-.08 1.137 0 1.387.254 2 2 30 171 50 310 7 43 12.004 41.993-125.996 21.993-47-7-136.008-18-198.008-25-107-12-191-27.004-165-29.004 7-1 54.016-28 106.016-60 81-52 138.996-89.989 295.996-197.989 16.625-11.375 30.943-19.693 35.605-20.253zm2694.825 1.7c-2.905 2.706-5.81 5.372-8.711 8.086 2.899-2.71 5.808-5.384 8.71-8.086zm-327.54 29.511c-26.972 24.467-53.413 48.784-79.14 72.852 25.722-24.063 52.174-48.39 79.14-72.852zm-98.75 91.328c-6.833 6.447-13.735 12.926-20.468 19.336 6.732-6.41 13.636-12.89 20.468-19.336zm262.598 36.856c-2.03 2.022-4.05 4.03-6.074 6.055 2.024-2.022 4.047-4.035 6.074-6.055zm-303.926 2.5c-6.66 6.404-13.407 12.837-19.96 19.2 6.551-6.361 13.301-12.799 19.96-19.2zm-34.12 33.086c-8.28 8.096-16.613 16.217-24.708 24.238 8.096-8.022 16.427-16.141 24.707-24.238zm135.312 36.27c-57.246 57.245-102.43 101.941-135.743 134.238 33.313-32.297 78.493-76.989 135.743-134.239zm-5712.012 5l-36.992 56.992c-142 221-546.996 1132.996-690.996 1550.996-21 62-40.008 113.011-43.008 112.011-3 0-50.004-42.007-104.004-93.007l-99.004-92.989 20-20c18-18 20.008-27.004 13.008-64.004-4-24-11-82.004-15-129.004-8-99-17.004-120-49.004-120-25 0-48.996 22-65.996 60-9 21-9.996 15.004-5.996-30.996 6-84-28.012-123.996-67.012-80.996-19 20-20.988 82.992-7.988 166.992l9.004 50-141.016-145c-215-223-403.996-455-525.996-650-70-110-75-122.996-65-165.996 8-34 17.004-42.996 69.004-70.996 268-145 834-262.011 1510-312.011 77-6 175.008-12.993 218.008-16.993l77.988-5zm5827.656 4.609v6.894c2.219-2.297 4.494-4.597 6.719-6.894h-6.72zm-69.121 79.687c-2.495 2.671-4.9 5.32-7.383 7.989 2.481-2.668 4.89-5.32 7.383-7.989zm-182.285 44.942c-33.313 32.297-54.742 52.195-64.492 59.882 9.748-7.686 31.186-27.593 64.492-59.882zm119.414 23.613c-9.026 9.998-18.01 19.968-26.836 29.902 8.816-9.928 17.82-19.91 26.836-29.902zm-189.043 39.746c-.479.194-.767.189-.898.02.12.187.418.17.898-.02zm150.937 2.813c-14.191 16.085-28.016 32.028-41.62 47.89a4547.89 4547.89 0 0 1 41.62-47.89zm-5276.562 14.59l57.012 5.995c31 4 62.992 8.997 71.992 10.997 22 6 69.004 111.996 129.004 290.996 26 80 51.004 147 54.004 150s10-6 15-20c15-38 116.992-243 141.992-285 13-20 38.012-55.985 57.012-78.985 33-41 36.988-43.008 87.988-43.008 49 0 55.004 2 69.004 30 15 29 44 119 60 185 30 124 20.992 381.997-18.008 510.997-36 118-70 177.007-145 253.007-93 95-149.984 121.996-83.984 40.996 47-58 70.984-103.992 103.984-196.992 31-87 31.004-90.008 34.004-313.008 1-124-1-253.007-5-288.007-12-102-41.004-106.993-74.004-11.993-40 117-190 454.004-205 464.004-4 2-18.984 2.004-33.984-.996-20-4-31.008-17.015-48.008-56.015-98-229-100.008-232.992-158.008-391.992-24-65-34.996-82-55.996-90-41-14-58.004 3.007-89.004 93.007-59 176-62.984 419.985-8.984 568.985 33 90 74.992 157.011 121.992 197.011 36 30 16.992 36.004-28.008 9.004-107-66-199.988-198.007-237.988-338.007-22-79-18.008-275 6.992-365 28-101 79-206.004 135-274.004l45.996-56.993zm5224.375 45.683c-14.105 16.574-27.987 33.06-41.367 49.316 13.376-16.25 27.27-32.747 41.367-49.316zm-41.367 49.316c-7.419 8.97-14.385 17.82-21.133 26.582 6.752-8.764 13.717-17.616 21.133-26.582zm-3538.028-34.453c17.157-.297 39.024 2.45 69.024 5.45l72.012 5.996 30 67.011c53 118 79.984 269 73.984 415-2 35-2.988 36.996-22.988 25.996-12-6-41.004-9.011-64.004-7.011l-41.992 5-22.012-155.996c-37-260-45-255-210 120-23 53-55.992 119.011-71.992 147.011-26 47-33.004 51.992-64.004 51.992-32 0-37-5-70-65-39-70-96.992-219-136.992-355-15-50-31.004-85-39.004-85-19 0-59 83.993-75 156.993-51 236-6.004 554.015 100.996 716.015 50 76 16 68.989-60-12.011-71-75-134.996-196.997-155.996-295.997-17-82-17-307 0-380 23-94 49.992-168.996 96.992-260.996l44.004-89.004h39.004c22 0 46-2.996 55-5.996 11-4 24 14 50 70 20 42 35.996 77.996 35.996 80.996 0 2 13.996 33.993 30.996 71.993 16 37 39.996 91.007 50.996 118.007 12 28 27.004 56.004 34.004 64.004 14 16 14.012 15.996 132.012-249.004 58.5-131.25 67.496-159.558 118.964-160.449zm3511.856 67.637c-6.499 8.599-12.756 17.084-18.535 25.352 5.78-8.262 12.04-16.762 18.535-25.352zm-20.176 27.754a700.036 700.036 0 0 0-14.023 21.055c4.41-6.87 9.023-13.851 14.023-21.055zm-19.18 29.199c-4.215 6.804-8.217 13.466-11.777 19.824 3.568-6.366 7.552-13.01 11.777-19.824zm-15.43 26.7zm261.954 279.16c34 0 519.996 169.003 675.996 234.003l38.008 15.996-125.996 250.997c-386 772-672.004 1471.003-974.004 2379.003-182 545-255 790-395 1320-42 159-65.996 235.992-75.996 236.992-8 1-41.004-8.992-74.004-21.992-33-13-145-58.004-250-99.004-104-41-255.996-101.996-335.996-135.996l-145.996-61.992 17.988-86.015c139-676 348.996-1383.996 630.996-2135.996 270-719 528.004-1247.997 794.004-1625.997 105-150 203-270 220-270zm-3542.227 199.785c5.904-.236 11.387 2.05 16.23 7.207 5 4-1.995 49.007-15.995 98.007-34 129-41 210.004-20 234.004 16 17 15.004 19-15.996 25-37 7-78.008 41.996-78.008 65.996 0 9 9 25 20 35 17 15 30.004 16.997 99.004 10.997 183-16 515.996 79 790.996 225 93 50 250 147 250 155 0 7-9 4.007-165-46.993-82-28-217-68.004-300-89.004-82-22-168-49.003-190-59.003-25-12-75.004-21-134.004-25-134-10-258.996-33.004-310.996-59.004-62-31-73.992-66.993-66.992-216.993 3-63 12.996-146 20.996-185 23.625-98.718 67.887-173.939 99.765-175.214zm-3241.562 497.578c6.103-.46 7.676 9.394 10.8 35.644 3 23 4.989 42.985 2.989 43.985-1 2-13.988-10-27.988-25l-26.016-26.993 23.008-16.992c8.25-6.375 13.545-10.369 17.207-10.644zM6423.2 8239.986c37.598-.311 144.59 111.742 144.59 153.398 0 26-3.992 30.996-21.992 30.996-16 0-42-24-85-75-35-40-63.008-80.007-63.008-88.007s9.992-16.996 21.992-20.996a15.476 15.476 0 0 1 3.418-.392z" fill="#051521"/><path d="M7018.79 4588.38c-139-62-407-154-611-210l-135-36-171 6c-94 3-194 10-223 16-102 19-141-21-141-147 0-42 4-55 22-67 46-33 88-6 88 57v37h58c31 0 125-5 207-12l150-11 140 41c219 65 522 166 644 216l111 46 54-27c52-25 55-26 80-9 32 21 34 55 4 83-27 24-121 73-140 73-7-1-69-26-137-56z" fill="#051521"/><path d="M6335.79 3986.38c-87-32-110-76-58-113 24-18 27-18 95 1 97 28 122 67 69 109-31 25-44 25-106 3z" fill="#051521"/><path d="M1733.79 7575.38c-24-27-19-169 7-185 35-22 51 4 58 90 3 43 2 87-3 97-11 22-41 22-62-2z" fill="#051521"/>
	</g>
	<animateTransform 
		xlink:href="#tail" 
		attributeType="XML"
		attributeName="transform"
		type="rotate"
		begin="marv.mouseover"
		restart="whenNotActive"
        values="0 8350 6650; 40 8350 6650; 0 8350 6650"
		keyTimes="0; 0.5; 1"
		dur="3s"
		repeatCount="1"
		fill="freeze"/>
</svg>