<svg xmlns="http://www.w3.org/2000/svg" version="1" width="1300" height="1300" viewBox="0 0 13000 13000"><path d="M7648.769 4530.903c-18-18-14-52 11-88 30-45 51-57 71-41 23 20 20 61-9 104-26 38-51 47-73 25zm-2275-15c-24-24 25-113 62-113 22 0 41 19 41 41 0 44-78 98-103 72z" fill="#f4f0ed"/><g fill="#716d68"><path d="M10196.769 5601.903c-14-6-46-31-72-56l-47-46 30-34c97-111 164-354 164-593 0-92-5-130-23-189l-23-73 22-24c23-24 49-23 28 2-6 7-15 12-18 9-4-2 3 19 17 47 31 66 79 254 93 371 15 123 6 259-24 348-28 83-18 98 37 55 47-35 139-166 141-198 0-5 3-8 8-8 6 0 9 5 6 13 0 1-2 13-5 27-14 82-83 245-125 299-40 51-144 75-209 50zm370-104c-9-11-7-30 14-92 56-173 76-292 76-460 0-147-17-247-55-331-27-58-26-67 4-75 29-7 100 93 146 204 44 110 58 206 52 363-2 78-8 149-12 159-27 66 106-56 146-135 11-21 24-36 30-32 17 10 2 76-49 222-24 68-76 117-169 157-88 38-161 46-183 20z"/><path d="M9873.769 5455.903c-4-3 7-19 24-35 95-96 192-437 193-684 1-104-2-125-17-142-10-11-14-23-9-26 24-15 94 105 113 194 19 87-12 299-72 502-24 82-83 162-131 176-49 15-95 22-101 15zm-132-63c-4-6-3-16 3-22s12-6 17 2c4 6 3 16-3 22s-12 6-17-2zm0-100c-4-6-3-16 3-22s12-6 17 2c4 6 3 16-3 22s-12 6-17-2zm10-60c-4-6-3-16 3-22s12-6 17 2c4 6 3 16-3 22s-12 6-17-2zm9-64c-8-21 3-49 16-41 5 3 10 15 10 25 0 25-18 36-26 16zm781-36c-4-6-3-16 3-22s12-6 17 2c4 6 3 16-3 22s-12 6-17-2zm-771-74c-4-10-2-22 4-28 8-8 13-7 18 6 4 10 2 22-4 28-8 8-13 7-18-6zm781 4c-4-6-3-16 3-22s12-6 17 2c4 6 3 16-3 22s-12 6-17-2zm-993-62c-7-7-12-22-12-33 0-36 30-54 95-57l60-3-4 45c-1 25-5 48-8 53-7 12-118 8-131-5zm-230-6c-40-12-26-26 38-41 46-10 65-10 73-2 32 32-46 62-111 43zm453-32c-4-6-3-16 3-22s12-6 17 2c4 6 3 16-3 22s-12 6-17-2zm-1620-10c-8-13 20-24 41-16 20 8 9 26-16 26-10 0-22-5-25-10zm-3410-19c-7-13 17-24 40-19 9 1 16 8 16 13 0 14-48 19-56 6zm2540-1c-3-5 0-13 9-16 21-8 61-1 61 11 0 14-62 19-70 5zm2550 0c-8-12 20-24 35-15 6 3 8 11 5 16-8 12-32 12-40-1zm-4601-14c-8-21 3-49 16-41 5 3 10 15 10 25 0 25-18 36-26 16zm4651-16c-3-5-4-10 0-10 3 0 1-9-5-19-6-12-6-22-1-26 11-6 20 6 26 35 4 22-10 36-20 20zm-4090-10c-4-6-3-16 3-22s12-6 17 2c4 6 3 16-3 22s-12 6-17-2zm-1080-10c-4-6-3-16 3-22s12-6 17 2c4 6 3 16-3 22s-12 6-17-2zm3400 0c-4-6-3-16 3-22s12-6 17 2c4 6 3 16-3 22s-12 6-17-2zm2430-40c-4-6-3-16 3-22s12-6 17 2c4 6 3 16-3 22s-12 6-17-2zm-750-60c-4-6-3-16 3-22s12-6 17 2c4 6 3 16-3 22s-12 6-17-2zm740 0c-4-6-3-16 3-22s12-6 17 2c4 6 3 16-3 22s-12 6-17-2zm-4520-49c-9-18-11-32-5-36 5-3 16 8 25 24 9 18 11 32 5 36-5 3-16-8-25-24zm-220 9c-4-6-3-16 3-22s12-6 17 2c4 6 3 16-3 22s-12 6-17-2zm4734-4c-1-3-2-9-3-13-1-5-5-13-9-20-4-6-3-14 3-18 5-3 11-4 11-1 1 3 2 9 3 14 1 4 5 12 9 19 4 6 3 14-3 18-5 3-11 4-11 1zm-2965-30c-8-21 3-49 16-41 5 3 10 15 10 25 0 25-18 36-26 16zm2111 4c-4-6-3-16 3-22s12-6 17 2c4 6 3 16-3 22s-12 6-17-2zm-4440-20c-4-6-3-16 3-22s12-6 17 2c4 6 3 16-3 22s-12 6-17-2zm4215-72c-30-10-95-27-143-36-48-10-88-22-88-28 0-9 37-21 97-31 50-8 109 14 160 60 26 24 43 46 38 49s-34-3-64-14zm-1886-22c-4-10-2-22 4-28 8-8 13-7 18 6 4 10 2 22-4 28-8 8-13 7-18-6zm2857-50c-13-13-18-26-13-30 5-3 19 5 31 18 13 13 18 26 13 30-5 3-19-5-31-18zm-4652 0c-1-3-2-9-3-13-1-5-5-13-9-20-4-6-3-14 3-18 5-3 11-4 11-1 1 3 2 9 3 14 1 4 5 12 9 19 4 6 3 14-3 18-5 3-11 4-11 1zm2452-10c-7-8-8-17-3-20 6-3 15 1 21 8 7 8 8 17 3 20-6 3-15-1-21-8zm1644 5c-7-12 12-24 25-16 11 7 4 25-10 25-5 0-11-4-15-9zm80 0c-7-12 12-24 25-16 11 7 4 25-10 25-5 0-11-4-15-9zm710 0c-7-12 12-24 25-16 11 7 4 25-10 25-5 0-11-4-15-9zm-4774-15c-7-8-8-17-3-20 6-3 15 1 21 8 7 8 8 17 3 20-6 3-15-1-21-8zm-506-5c-7-12 12-24 25-16 11 7 4 25-10 25-5 0-11-4-15-9zm2250-11c-4-6-1-18 7-27 7-9 12-18 11-20-2-1-1-3 2-3h12c4 0 2 5-4 11s-9 17-7 24c7 16-12 29-21 15zm374-124c-1-3-2-9-3-13-1-5-5-13-9-20-4-6-3-14 3-18 5-3 11-4 11-1 1 3 3 11 4 16 1 6 3 13 4 16 0 4 7 1 15-5 10-8 16-9 21-1 3 5 4 11 1 11-3 1-9 2-13 3-5 1-14 5-20 9-7 5-14 6-14 3zm-2633-14c-3-6 1-15 8-21 8-7 17-8 20-3 3 6-1 15-8 21-8 7-17 8-20 3zm-101-51c-7-12 12-24 25-16 11 7 4 25-10 25-5 0-11-4-15-9zm2370 0c-7-12 12-24 25-16 11 7 4 25-10 25-5 0-11-4-15-9z"/></g><path d="M4284.769 3457.903c-2-3-19-6-36-8-18-2-31-8-30-13 2-5 6-8 9-7 4 1-9-37-27-85-113-286-223-722-262-1042-17-137-17-163 5-239 8-29 30 13 68 129 124 379 333 897 474 1179 22 43 37 81 34 85-7 7-227 8-235 1zm4452-26c-15-27 0-45 42-51 24-4 32-1 35 13 4 15 9 16 23 9 12-6 21-7 25-1 5 9-19 28-35 29-3 0-18 5-33 11-39 15-45 14-57-10zm237-5c-3-5 3-20 12-33 11-14 21-19 25-13 3 5-2 20-12 33-11 12-21 18-25 13zm-476-98c-20-24 4-56 40-56 37 0 174-27 212-42 19-7 27-18 27-35 0-33-23-38-83-19-29 10-76 20-104 23-43 5-54 3-59-10-23-61 367-1277 411-1281 6-1 16 22 23 49 16 60 16 55 3 130-6 33-24 195-41 360-41 412-91 838-99 847-4 4-42 17-85 28-95 24-228 27-245 6z" fill="#8e7237"/><g fill="#d71c12"><path d="M8520.769 4963.903c-18-8-22-21-28-80-12-119-63-249-146-371-43-63-147-165-202-199-32-19-38-28-38-58 0-73-132-222-269-303-92-55-208-99-301-116-252-45-614 27-933 184l-94 47-99-52c-283-150-627-199-898-128-257 67-496 241-496 361 0 30-5 36-62 66-165 87-276 269-317 519l-17 104-184 8c-145 6-210 4-300-8-250-33-302-37-503-39-114-2-210-5-213-9-16-16 175-70 411-116 185-36 327-54 425-53l75 1-30-25c-67-56-299-154-465-197-150-39-100-57 100-37 158 16 265 38 410 83 126 40 130 41 130 16 0-36 49-268 81-384 48-173 96-299 170-452 70-144 78-170 57-191-15-15-64-16-73-1-30 48-256-380-420-794-135-343-222-615-280-876-29-131-31-174-10-191 24-20 47-7 83 45 86 123 277 328 985 1055 190 195 343 358 340 364-4 5-56 6-129 2-116-7-124-6-144 14-25 25-25 42-2 63 16 15 48 17 240 17 206 0 222-1 231-19 10-19 33-24 215-56 161-27 282-44 520-69 16-2 71 9 122 24l92 27-50-80c-53-85-55-108-10-115 15-2 31 13 65 60 25 35 52 80 60 101 11 26 22 37 37 37 26 0 37-26 22-51-9-14-9-20 1-26 6-4 202-8 435-9 356 0 425-3 433-15 27-43-5-69-86-69-35 0-66-4-69-9-7-11 196-233 320-351 305-289 792-689 1031-846 65-43 128-87 140-97 19-16 25-18 38-7 20 17 19 35-5 68-61 84-443 1249-471 1438-11 77-102 359-114 358-6-1-16-15-24-33-11-24-21-31-43-31-23 0-28 4-28 25 0 14 16 47 35 74 19 26 35 54 35 61 0 6 15 30 34 53 48 59 68 104 114 252 58 184 89 318 117 511 14 92 27 169 30 172 2 3 16-3 29-12 14-9 31-16 38-16s29-8 48-19c71-38 363-121 377-107 4 3 12 1 19-5 8-7 14-7 19 1 3 5 4 11 1 11-3 1-9 2-13 3-9 2-205 101-318 160-63 33-151 104-141 113 2 3 54-21 115-51l111-56h98c54 0 123 4 153 10 30 5 83 14 119 20 137 23 411 129 399 155-2 6-55 9-139 7-243-7-528 32-771 104-133 40-192 49-225 35z"/><path d="M4177.769 3836.903c-39-43-68-81-63-86 7-7 158 45 175 61 9 9-10 70-28 89-10 11-26-1-84-64zm4606-21c-3-5-7-44-8-88l-4-80 85-41c47-23 88-40 92-38 15 9-50 133-115 217-28 36-41 44-50 30z"/></g><path d="M6422.769 4922.903l-219-5-23-80c-30-100-69-179-143-292-105-160-230-246-436-298-80-20-125-25-226-25-70 0-150 5-180 10-82 16-83 1-2-77 75-73 180-132 303-171 250-80 564-45 821 92 165 87 223 116 232 116 6 0 37-24 71-54 60-53 78-62 201-113 175-71 312-102 496-110 189-9 340 28 467 114 113 76 235 216 163 188-35-14-177-17-254-5-94 14-168 40-282 98-211 105-389 318-460 547l-22 70h-144c-79 0-243-2-363-5zm-2243-1255c-40-18-99-54-131-79-52-39-61-52-80-108-86-258-122-635-92-963 14-157 40-328 50-339 12-13 16 0 30 123 33 294 161 797 270 1060 16 40 28 77 25 81-2 4-15 5-28 3-50-10-60 53-12 75 21 10 24 16 19 42-6 28-4 31 26 36 42 9 54 40 28 77-11 15-22 27-26 27-4-1-40-16-79-35zm4750-231c-10-25-44-33-82-18-53 22-74-10-27-41 34-23 39-42 14-64l-21-20 22-173c26-210 53-463 81-743 24-243 37-336 50-349 12-12 16 1 34 114 43 270 58 450 58 695 0 320-29 535-78 586-32 33-42 36-51 13z" fill="#ffcc63"/><path d="M8703.769 4973.903c-48-3-88-10-88-16-1-13 143-58 286-90 199-44 328-58 532-59 105-1 191-4 190-8-1-3 3-6 8-6 6 0 9 3 8 8-1 4 8 8 20 8 33 0 105 21 113 33 14 23-13 28-78 14-95-20-303 8-543 71-192 52-256 58-448 45zm-5092-7c-11-3-69-14-130-26-60-11-114-24-119-29s11-17 39-29c33-14 52-17 59-10 14 14 47 13 44-2-2-7 0-13 3-13s13-6 22-13c10-9 17-10 22-2 6 10 5 11-14 14-5 0-12 4-15 7-4 3 69 9 161 13 150 6 332 23 478 44 63 9 61 25-5 33-67 9-519 19-545 13zm4980-183c-2-5 29-38 70-75 72-65 104-85 298-183 48-24 85-48 82-53s-1-11 4-14c5-4 13-1 16 4 5 8 12 7 23-3 10-8 24-15 32-15 8-1 37-5 63-10 64-12 70 3 10 29-125 53-169 75-183 90-33 35-144 111-220 149-125 63-189 89-195 81zm-4411-52c-7-13 15-21 39-14 12 4-3-9-33-27-54-33-279-133-415-183-79-30-96-41-72-51 41-15 311 68 472 146 101 49 190 114 179 131-6 11-163 9-170-2zm4401-101c-2-7-16-92-30-188-27-187-64-350-119-523-18-59-30-110-25-113s25 28 44 70c69 152 138 410 165 621 7 50 17 95 22 102 7 8 0 16-21 28-25 12-32 13-36 3zm-4161-606c-61-32-174-108-174-117 0-1 7-21 14-43 15-40 11-53-16-58-5-1-10-3-13-4s-9-3-15-4c-5 0-10-4-10-8v-14c0-4 7 0 17 7 9 8 18 13 20 12 1-2 4-3 6-2 55 17 152 29 232 29 50 0 94 2 97 5 6 6-64 211-77 224-7 6-35-3-81-27zm4146-74c-5-13-28-68-51-123-60-146-62-139 51-146 97-6 164-20 212-45 17-9 29-10 33-4 3 6-1 13-10 16-13 6-15 17-9 78 3 39 10 75 15 80 13 14-79 92-154 131-38 19-71 35-73 35s-9-10-14-22zm-2095-815c-44-13-95-25-113-26-36-2-44-22-9-23 12 0 50-4 84-8l62-8-15-30c-10-19-12-34-7-39 11-11 106 137 98 152-8 11-4 12-100-18zm-2115-2c-6-12-6-22-1-26 6-3 15 3 21 14 6 12 6 22 1 26-6 3-15-3-21-14z" fill="#65130c"/><path d="M333.769 9246.903c-20-21 238-569 546-1159 419-804 839-1533 1194-2073 138-210 352-489 353-461 0 2 2 324 4 714 4 759 14 1042 62 1723 9 122 13 229 10 237-4 11-13 14-29 10-28-7-58 4-362 137-513 225-1042 483-1518 743-136 74-249 135-251 135-1 0-5-3-9-6zm12303-70c-205-166-922-587-1574-924l-199-103 6-66c72-786 132-1905 126-2346-2-115 1-190 7-190 14 0 152 211 254 390 193 339 499 978 877 1830 289 650 616 1431 607 1446-12 20-52 5-104-37z" fill="#645134"/><path d="M3102.769 11594.903c-38-77-136-413-136-470 0-16-8-40-19-53-49-63-233-1308-325-2204-110-1061-171-2407-136-3005 4-85 14-256 20-380s16-233 21-242c5-10 9-33 9-52 0-56 0-56 265-85 503-56 1015-87 1880-114 479-14 2084-12 2745 4 239 6 617 14 840 18 468 9 1391 50 1404 62 6 5 3 47-7 106-25 140-23 238 6 287 41 72 63 81 198 83l119 1 46 51c66 73 139 106 234 106 87 0 150-25 204-81l33-34 58 11c32 6 77 8 100 5 53-8 147-53 207-99 33-25 50-33 54-25 17 27 16 723 0 1048-43 845-96 1509-191 2365-19 176-53 484-75 685-92 840-139 1173-221 1575-24 114-84 327-105 367-17 32-23 34-169 48-492 46-991 54-2815 44-872-5-2082-9-2690-9h-1105l-5-25c-3-14-19-52-36-85-116-222-189-606-182-963 3-196 2-201-48-202-42 0-47 20-40 172 20 416 77 752 170 998 19 52 32 98 28 101-4 4-78 9-165 12l-157 5-14-26zm9707-2374c-5-7-20-56-32-108-24-100-38-134-201-485-56-121-183-404-281-628-533-1211-1033-2237-1243-2548-33-49-37-69-15-69 17 0 259 397 411 675 481 883 994 1994 1258 2725 42 118 96 261 120 318 34 83 39 106 30 117-15 18-34 19-47 3zm-12615-9c-16-9-15-15 8-77 289-766 1450-2818 2049-3617 136-182 174-227 185-220 4 3 5 26 2 52-4 40-16 61-69 128-210 263-782 1192-1185 1925-183 333-333 618-626 1195-167 330-309 606-314 613-12 14-27 15-50 1z" fill="#c49e69"/><g fill="#010101"><path d="M3017.769 11783.903c-27-29-64-136-92-263l-12-57-31-183c-10-50-53-307-91-543-19-121-40-247-45-280-6-33-19-123-30-200s-22-156-25-175c-20-134-38-271-50-370-8-63-25-203-39-310-24-188-44-373-67-605-5-60-14-150-19-200-5-49-12-127-15-171-8-93 2-89-115-52-66 21-443 165-515 198-22 9-89 39-150 65-193 83-536 250-689 334-28 16-82 45-121 66-139 74-322 183-444 264-47 31-96 62-110 70s-43 29-64 47c-43 39-73 43-110 14-32-25-41-53-27-80 9-17 8-20-12-20-59 0-108-77-89-141 11-37 233-486 364-734 40-77 104-198 141-270 38-71 96-182 131-245 34-63 86-160 115-215 30-55 66-122 82-148 15-26 28-49 28-51 0-3 120-218 229-411 41-71 192-327 250-422 31-51 88-144 126-208 67-111 251-404 393-625 74-116 291-441 395-592 61-88 65-97 47-103-31-10-54-62-41-91 20-45 47-53 201-58 142-4 384-20 488-32 60-6 61-24 1-24-70 0-101-55-55-99 24-22 25-22 82-6l59 16 125-41c205-67 387-117 518-143 68-14 125-27 128-30 5-5-223-91-355-133-46-14-122-29-168-33-57-5-88-12-100-23-23-24-21-75 6-101 21-22 24-22 334-19 326 3 489 16 657 53 52 11 107 22 121 26 31 6 30 6 70-161 20-86 21-100 9-108-8-5-55-32-105-61-145-85-333-286-388-417-6-14-26-42-46-62-32-34-35-43-36-100 0-35-3-67-7-73-8-14-54-244-70-350-18-131-16-573 5-750 31-264 82-520 117-585 6-12 9-32 6-45-3-12-6-69-7-126-1-100 0-104 26-126 56-49 77-31 264 222 149 201 333 399 837 901l482 482 63-4c81-6 219-20 329-33 77-10 290-32 445-47l60-5-1-72c0-52-6-85-23-120-26-58-25-73 11-100 25-19 28-19 52-3 14 9 28 29 32 44 9 44 27 85 51 121 13 19 23 41 23 50s10 28 23 42l22 26 320-14 321-14 229-227c250-247 306-296 782-694 188-156 378-305 528-413 71-51 194-115 222-115 30 0 54 21 81 67 20 37 14 87-19 157-17 36-28 69-26 73 7 11 43 192 56 278 71 464 79 964 22 1299-5 27-6 57-3 68 2 10-2 28-10 40-8 13-25 55-37 93-69 213-217 405-368 478l-69 33 21 80c12 43 31 123 41 177 22 114 8 108 154 64 157-47 495-108 681-122 98-8 120-1 139 45 11 28 11 34-7 58-17 23-85 56-177 87-18 5-17 7 10 21 16 8 48 33 71 56l41 41 30-34c16-19 41-48 56-65 36-44 96-65 197-71 103-7 171 8 232 48l45 29 58-30c74-38 161-48 222-27 39 14 50 13 130-5 48-11 123-20 167-21 68-1 86 2 117 21 34 22 88 81 88 98 0 5 15 24 34 44 87 90 175 529 135 673-9 32-7 41 10 66 12 16 21 31 21 34s27 53 60 111 60 108 60 110c0 3 15 31 33 63 51 88 276 501 357 653 73 139 432 860 490 985 18 39 73 158 122 265 156 337 338 757 454 1050 19 47 38 94 44 105 14 30 81 196 162 403 78 199 80 215 27 254-25 19-32 19-130 8-57-7-123-11-146-11-40 2-46-2-105-65-77-81-230-196-450-337-175-113-194-124-463-277-316-179-769-411-780-398-2 3-9 62-35 313-13 122-69 629-81 735-5 47-16 148-24 225-26 240-34 312-65 575-6 47-17 141-25 210s-23 195-34 280c-61 469-81 610-81 610l-60 282-7 26c7-26-1 33 6 43 15 25 14 60-3 84-13 19-27 20-282 23-148 1-402 8-564 14-211 9-755 11-1915 8-3576-10-3989-7-4432 32-115 10-133 14-133 29 0 23-47 59-77 59-15 0-36-12-52-29zm402-201c-1-8-16-53-33-100-86-233-138-535-160-929-9-160-9-187 5-207 23-36 62-42 91-13 23 24 23 27 27 279 4 200 9 281 25 375 37 207 86 372 158 525l39 81 940-3c517-2 1763 1 2770 6 2080 10 2442 4 2966-50l66-6 37-122c66-221 138-596 196-1031 23-172 199-1758 229-2065 96-971 160-2147 141-2598-5-118-10-215-12-217s-33 16-68 41c-35 24-94 54-130 65-58 18-73 19-133 8l-69-11-36 35c-54 52-123 80-203 81-87 0-180-43-240-113l-42-48-86 4c-110 7-164-8-212-56-63-62-73-146-40-326 10-55 18-101 17-102-6-8-1101-51-1451-57-148-3-441-10-650-16-209-7-884-13-1500-13-1073-2-1566 6-2060 33-99 5-277 15-395 20-294 15-970 77-1031 96-18 5-22 24-38 169-49 439-49 1435-1 2260 29 499 75 1046 126 1505 92 839 262 1956 301 1985 8 6 18 42 24 80 11 77 31 150 91 333l40 123 151-3c128-3 152-5 150-18zm-2853-2470c428-235 897-467 1405-695 335-150 476-207 497-202 22 6 22 17 3-249-47-666-69-1309-63-1916 2-258 3-468 2-468-6 0-150 188-211 275-216 305-617 970-965 1600-240 434-674 1281-775 1515-87 200-112 261-105 257 4-3 99-55 212-117zm12280 95c0-16-71-198-75-193-3 3 39 168 50 196 6 17 25 15 25-3zm-12402-420c302-601 421-830 660-1270 397-732 976-1684 1206-1983 109-141 116-153 116-184 0-18-4-27-10-23-22 14-280 368-401 550-564 849-1381 2300-1686 2995-46 104-133 318-133 326 0 2 33 11 36 10 1-1 96-190 212-421zm12210 243c-438-1078-1121-2572-1404-3068-65-115-233-390-237-390-1 0-3 155-4 345-2 525-41 1219-119 2155l-6 75 203 102c556 278 1395 771 1569 922 19 17 42 30 51 31 14 0 3-35-53-172zm17-298c-137-373-275-701-526-1245-158-344-526-1083-672-1350-122-225-266-475-273-475-3 0 8 24 24 53 242 429 641 1267 1107 2327 217 492 405 903 411 897 2-2-30-95-71-207zm-2316-3159c61-32 124-171 178-394 14-55 18-112 17-242 0-150-3-177-22-230-29-77-86-162-118-177-29-13-74 4-135 52l-36 29 25 73c67 200-1 598-133 771l-34 45 20 26c50 64 162 85 238 47zm376-106c28-12 60-26 72-30 32-9 88-78 103-127 7-24 21-70 32-103 30-91 22-280-14-349-6-10-21-59-34-107-25-94-62-176-88-199-19-15-181-9-198 8-6 6-3 23 10 49 40 77 54 153 57 303 4 172-17 314-69 474-33 104-33 105-12 109 35 8 88-3 141-28zm-749-47c47-22 89-89 114-179 63-234 84-417 57-509-22-74-68-145-109-166-72-37-248-25-256 18-2 9 7 31 19 47 20 27 21 37 15 106l-7 76 34 14c42 18 59 38 55 66-5 33-31 46-68 32-27-10-30-9-35 10-4 20-30 241-42 364-8 74 3 122 30 134 29 12 159 4 193-13zm-301-459c4-17 4-33 1-36s-30-2-61 2c-53 6-55 8-55 36s1 29 54 29 55-1 61-31zm-255 11c0-11-21-11-65 0-27 7-25 8 18 9 26 0 47-3 47-9zm-275-64c179-47 464-93 502-80 47 16-30-26-117-63-174-75-353-113-536-113-62 0-115-4-119-9-3-6 20-29 52-52 32-24 63-49 68-57 6-7 40-27 75-43 83-36 64-36-85 0-130 32-227 64-259 84-28 18-104 39-115 33-5-3-12-36-15-73-12-112-63-350-102-473-44-141-144-354-186-397-18-18-29-36-25-39 3-4-11-32-33-63-45-63-47-76-23-103 24-26 48-22 75 13l24 30 42-133c23-73 46-158 51-190 23-139 260-898 392-1253 56-151 73-192 95-222 15-21 15-23 0-29-10-4-26 2-39 13-12 11-65 49-117 83-317 211-786 604-1125 944l-230 231 61 5c95 8 134 59 82 107-22 20-29 21-178 14-85-5-220-7-300-6-80 2-196 3-257 4l-113 1v29c0 34-20 54-51 49-16-2-32-21-54-65-39-77-82-133-101-133s-17 27 7 79c11 25 16 48 12 52s-62 12-128 18c-268 26-641 79-720 103-22 7-52 20-66 31-23 17-44 18-238 15-210-3-213-3-232-27-23-28-24-50-5-77 13-17 31-20 142-24l128-5-389-400c-708-728-840-869-933-998-37-51-43-54-61-33-9 11-7 38 9 117 83 409 266 926 490 1384 62 127 166 314 183 332 2 1 17-3 35-9 28-11 34-10 57 12 14 13 25 35 25 49s-27 80-59 146c-64 128-122 277-153 390-40 142-68 262-84 350-20 117-28 135-57 135-14 0-66-14-118-31-163-53-372-89-519-89l-75 1 145 60c80 33 168 71 195 82 78 34 186 98 180 107-3 4-38 11-77 15-104 10-246 31-368 55-197 40-400 96-400 111 0 5 4 9 8 9s59 10 122 21c111 21 126 21 450 10 459-15 604-21 607-25 2-1 10-42 18-91 21-118 58-226 105-305 46-78 144-175 222-219 43-24 55-36 51-50-13-50 109-193 220-259 77-46 199-98 293-124 69-19 103-22 279-22 184 0 208 2 297 27 120 32 279 95 359 142l60 35 79-40c176-88 393-160 580-191 120-20 330-15 425 10 109 28 250 99 338 171 108 86 189 191 192 246 2 28 11 40 61 77 106 78 189 182 254 319 47 99 70 183 70 255v52l143 4c292 7 307 5 502-47zm-770-28c-20-177-144-376-297-478-34-22-63-39-65-37s8 24 22 49c43 76 61 166 101 486l5 42h241zm-3298 32h163l-6-77c-15-184 44-374 151-487l27-29-104 6c-329 20-504 170-563 480-24 129-30 121 77 113 50-3 165-6 255-6zm2523 3c0-5-7-43-15-86s-15-129-15-190c0-156 28-250 87-297l28-23-40 7c-53 10-157 52-220 89-165 97-304 264-364 440l-20 56 97 4c210 7 462 7 462 0zm-680-20c0-10 9-43 21-73 117-308 386-546 697-616 52-11 107-15 192-13l119 4-23-30c-34-43-148-128-222-164-35-17-98-41-141-53-253-71-731 31-949 202-35 27-72 50-81 50-10 0-58-23-108-50-267-148-419-193-655-193-160 1-233 15-371 72-89 38-202 114-237 159l-25 33 59-8c115-15 322-7 409 16 105 28 226 87 297 144 110 91 254 321 288 462 7 28 14 56 16 63 3 9 83 12 359 12 331 0 355-1 355-17zm-856-45c-50-171-189-369-303-428-22-11-23-11-16 6 47 118 67 227 69 371l1 103h264zm3431-238c-4-6-30-24-58-40-39-22-65-30-102-30-78 0-84 15-13 28 35 6 88 20 118 31s56 20 58 20c2 1 0-4-3-9zm-1788-128c22-44 21-72-2-72-28 0-70 75-58 105 10 27 37 12 60-33zm-2282 3c27-26 34-75 12-75-27 0-74 70-61 91 9 15 24 10 49-16zm-880-624c5-17-5-19-112-24-114-5-209-28-282-66-40-22-21 5 52 75 84 82 117 106 212 156l70 37 27-80c15-44 30-89 33-98zm4237-49c38-41 80-100 106-149l42-82-95 45c-113 53-195 74-289 74-51 0-67 3-63 13 14 30 85 204 90 219 11 31 133-40 209-120zm-4492-172c25 0 6-18-24-24-43-8-60-28-52-61 4-16 2-25-6-25-18 0-48-31-48-50 0-9 8-24 19-34 16-15 29-15 107-6 100 11 198 13 207 4 3-4-11-41-32-83-62-122-186-407-267-611-79-201-217-584-229-639-4-18-11-29-15-24-11 10-45 222-61 373-16 149-16 477 0 605 17 135 44 265 76 372 34 109 66 143 198 208l92 45 13-25c7-14 17-25 22-25zm4581-247c19-4 31 2 46 20l20 25 26-21c22-18 29-37 41-112 38-223 44-583 16-855-16-152-50-382-68-461l-18-74-53 140c-103 269-306 917-346 1103-8 40-4 40 118 10 98-24 120-20 125 25 2 18-4 30-20 40-23 15-123 40-210 52-31 4-48 11-48 20 0 24 79 28 181 9 130-24 148-23 166 3 14 20 13 24-9 46-14 14-43 28-66 32s-42 8-42 10 3 10 6 19c5 13 12 13 57-5 29-12 64-23 78-26z"/><path d="M3785.769 11557.903c-16-8-30-28-37-52-15-53-82-396-82-422s42-71 65-71c9 0 30 13 46 29 24 25 29 38 29 79 0 59 24 191 51 283 26 91 25 123-7 148-31 24-31 24-65 6zM3563.769 11494.903c-10-11-22-34-27-53-18-62-50-303-50-376 0-63 3-74 22-87 31-22 55-20 83 8 21 21 24 32 24 112 0 106 14 205 42 293 20 64 20 65 1 90-24 33-71 39-95 13zM5170.999 10394.361c-105.728-104.808-324.853 47.268-455.16-84.38-172.943 60.101-336.888-53.992-505.994-81.564-130.367-49.382-213.091-248.015-338.926-221.528-44.559-131.68-258.996-110.939-230.337-268.15-85.947-75.342-72.89-193.86-138.063-268.356 100.393 45.582-94.9-704.224 76.862-188.693-20.628-77.49 52.84-122.667-48.61-139.627-129.912-95.868 121.235-198.041 6.439-274.845-103.516-121.236 16.914-308.96-36.007-438.775 16.009-172.295 17.398-351.396 19.396-515.41-5.888-175.036 32.62-358.057 42.745-506.803 12.996-140.17 15.285-333.483 45.604-492.226-77.847-86.36 120.5-66.388-4.354-116.64 17.835-72.717 111.348-318.412-26.372-287.879 28.29 176.042-146.305-27.307-117.11-37.725-169.815-132.412 180.515-230.934 295.17-172.496 153.096-8.834 288.714-23.614 425.405 4.075 123.973-44.133 221.808 60.011 333.822 20.645 104.498 23.832 293.124 53.095 175.899 201.563-75.977-42.454-240.669 163.712-311.082 32.02-166.747 5.65-187.019 222.721-110.313 311.106-60.965 136.954-26.2 319.124-67.028 480.138-38.612 192.515.044 378.813 43.705 562.46-31.314 79.92-58.266 120.16 5.908 190.99-29.37 66.53-124.3 243.814-61.139 192.734 89.804 143.829 28.753 304.634 15.347 460.784 5.462 155.647 161.134 246 156.857 425.944 53.544 106.753-2.845 226.28 162.37 223.295 125.135 7.632 227.948 106.497 346.286 45.094 78.774 107.936 168.721 88.05 237.54 2.716 88.757-.502 125.583 73.54 166.315-24.686 103.278 56.056 238.696-37.157 160.428-158.133 59.75-62.654 145.772-107.988 69.935-194.786-78.704-121.243 21.447-184.79 53.345-286.846 57.664-121.385 77.594-317.896 167.662-456.54-41.146-53.934-147.482-202.861-7.298-245.4 72.347-126.338 40.111-266.896-7.297-401.869 74.679-134.982 27.541-313.863 101.01-452.736 85.708-172.23-73.82-330.15 38.62-491.615 37.072-99.995-18.425-114.046-104.27-92.429-158.182 55.064-289.99-131.227-137.02-225.658 137.851-62.495 283.171 3.993 409.64-78.588 190.668-18.769 363.63-4.865 565.993-35.36 111.114-39.082 236.655 14.636 204.32 149.113 113.552 5.447-100.17 175.647-155.634 67.13-69.774 9.889-89.154 136.978-139.348 26.657-176.106 18.133 32.858 259.024-23.357 384.817 7.364 195.11-12.243 394.828 16.842 586.869-94.167 152.966 31.155 331.812-59.197 477.421-17.448 158.04 105.432 291.087 20.766 449.273 25 93.794 65.144 191.808-39.496 230.255-56.701 102.86 9.655 159.882-3.476 255.859 96.5 54.269 55.25 115.373-5.826 178.885-185.922 46.563-91.957 258.329-141.791 408.996-91.5 89.56-167.991 213.515-112.721 325.952-60.791 83.225-250.625 25.316-135.343 150.518-102.365 62.121-240.865 172.718-341.057 169.782 55.802 185.871-261.044 151.795-368.556 221.12-64.537 58.672-81.153 98.463-132.05 3.532zM8375.269 10415.363c-110.486-85.408-304.245 27.206-430.473-101.342-165.408-68.284-362.478-29.878-507.412-157.185-102.945-81.693-163.139-279.032-259.764-303.8-142.849 125.142-88.11-150.197-202.493-183.645-112.277-102.3-101.972-266.06-205.528-373.412 121.2-73.279 22.71-180.808-57.125-258.083-33.92-86.742 93.771-226.964 68.189-346.43 34.248-144.344-74.95-265.664 11.992-412.207 22.436-199.417 43.122-407.072 79.642-591.73 49.11-174.582 83.394-333.04 180.96-493.39 115.319-149.1 181.708-323.116 303.727-465.458 93.606-110.658 137.534-241.771 303.556-190.13 159.987-99.071 311.495-131.48 469.586-162.468 85.986-47.095 188.91 4.127 280.5-58.766 150.75 80.407 351.304-.555 521.26 33.018 187.528-8.205 364.942 206.33 531.13 127.202 113.464 50.061 263.97 127.585 290.777 264.336 142.925 58.638 250.85 211.237 311.548 309.422 126.767 10.87 130.895 186.945 5.929 126.565 98.427 93.507 200.37 166.873 327.31 96.807 30.262 51.544-96.88 89.567 13.849 76.156 120.96 72.256-170.687 319.572-147.063 229.069-157.31 155.217-382.233 48.786-576.556 94.342-143.927 71.242-443.232-84.022-292.897-235.561 143.664-114.6-122.425-219.301-214.501-251.856-163.87-19.039-344.344-167.342-512.605-59.965-174.32-18.838-322.646 75.81-474.744 137.021-42.721 99.697-306.898 190.835-217.151 160.408-4.288 80.803-154.346-29.496-139.071 127.127-140.138 170.54-158.627 376.812-218.45 586.716-45.024 127.763-32.056 250.5-80.557 388.713 8.933 160.557-25.534 346.45 95.409 488.93-65.576 162.378 173.206 257.015 259.617 374.447 143.014 65.15 347.423 14.772 510.579 64.8 119.587-79.83 412.085 95.894 339.46 52.026-16.166-129.273 184.118-228.968 299.03-165.698 206.693-8.69 273.477-264.846 453.235-303.463-47.493-71.366-174.132-140.726-135.498-253.655 118.736 5.277 86.909-34.851 35.288-43.053 112.944-169.362 263.907-140.581 439.448-144.519 165.727-67.854 362.035 41.653 510.254-1.693 201.336-48.795 263.77 253.23 45.117 263.998-100.55 50.502-238.84 115.827-130.38 240.162-159.02 101.448 85.294 299.563-103.713 338.206 10.849 109.88-222.644 287.829-126.696 270.445-40.887 129.921-178.977 156.788-232.722 258.976-98.822-143.048-398.11 156.505-351.85 103.215 57.924 165.955-214.013 266.69-303.776 144.218-98.042 136.274-324.04 252.569-475.481 171.838-30.802 8.679-46.943 150.175-140.95 57.679-62.653-17.378-105.132 58.36-149.936-28.333z"/></g></svg>